<svg xmlns="http://www.w3.org/2000/svg" xmlns:xlink="http://www.w3.org/1999/xlink" width="1366" zoomAndPan="magnify" viewBox="0 0 1024.5 576" height="768" preserveAspectRatio="xMidYMid meet" version="1.0"><defs><filter x="0%" y="0%" width="100%" height="100%" id="300788f215"><feColorMatrix values="0 0 0 0 1 0 0 0 0 1 0 0 0 0 1 0 0 0 1 0" color-interpolation-filters="sRGB"/></filter><clipPath id="20691968bc"><path d="M 905 173 L 1022 173 L 1022 575.859375 L 905 575.859375 Z M 905 173 " clip-rule="nonzero"/></clipPath><mask id="5f20f02428"><g filter="url(#300788f215)"><rect x="-102.45" width="1229.4" fill="#000000" y="-57.6" height="691.2" fill-opacity="0.73"/></g></mask><clipPath id="a58ed6ac2c"><path d="M 0.769531 0.0976562 L 116.214844 0.0976562 L 116.214844 402.859375 L 0.769531 402.859375 Z M 0.769531 0.0976562 " clip-rule="nonzero"/></clipPath><clipPath id="e29ce6243a"><rect x="0" width="117" y="0" height="403"/></clipPath><clipPath id="b75b80fbc6"><path d="M 0 173 L 116 173 L 116 575.859375 L 0 575.859375 Z M 0 173 " clip-rule="nonzero"/></clipPath><mask id="45777e7952"><g filter="url(#300788f215)"><rect x="-102.45" width="1229.4" fill="#000000" y="-57.6" height="691.2" fill-opacity="0.73"/></g></mask><clipPath id="4dcdfcf2ca"><path d="M 0.1875 0.0976562 L 115.445312 0.0976562 L 115.445312 402.859375 L 0.1875 402.859375 Z M 0.1875 0.0976562 " clip-rule="nonzero"/></clipPath><clipPath id="0d561eac1d"><rect x="0" width="116" y="0" height="403"/></clipPath></defs><g clip-path="url(#20691968bc)"><g mask="url(#5f20f02428)"><g transform="matrix(1, 0, 0, 1, 905, 173)"><g clip-path="url(#e29ce6243a)"><g clip-path="url(#a58ed6ac2c)"><path fill="#93b67e" d="M 81.351562 288.011719 C 82.332031 286.1875 84.09375 283.511719 85.660156 281.226562 C 87.160156 278.941406 88.464844 276.917969 89.507812 275.484375 C 90.488281 273.984375 91.207031 273.070312 91.398438 273.007812 C 91.664062 272.941406 91.464844 273.722656 90.550781 275.355469 C 89.703125 276.917969 88.074219 279.398438 86.507812 281.8125 C 84.875 284.226562 83.242188 286.640625 82.136719 288.402344 C 81.484375 289.445312 81.027344 290.296875 80.699219 290.882812 C 80.503906 291.925781 80.308594 292.90625 80.113281 293.882812 C 79.59375 296.167969 79.132812 298.324219 78.613281 300.214844 C 79.261719 299.167969 80.046875 298.125 80.828125 297.078125 C 83.050781 294.40625 85.789062 291.730469 89.117188 288.335938 C 92.511719 284.941406 96.488281 280.832031 100.015625 275.9375 C 103.535156 271.046875 106.539062 265.371094 108.757812 260.34375 C 110.976562 255.320312 112.28125 250.886719 113.390625 246.640625 C 114.5 242.335938 115.347656 238.292969 115.867188 233.921875 C 116.328125 229.546875 116.390625 224.980469 116.195312 222.371094 C 116.0625 220.871094 115.867188 220.023438 115.609375 219.628906 C 115.542969 220.089844 115.480469 220.675781 115.414062 221.324219 C 115.085938 223.414062 114.566406 226.417969 113.976562 228.765625 C 113.453125 231.113281 112.933594 232.875 112.476562 233.921875 C 112.085938 234.898438 111.691406 235.09375 111.628906 234.898438 C 111.5625 234.703125 111.824219 234.050781 112.152344 232.941406 C 112.476562 231.832031 112.800781 230.199219 113.257812 228.113281 C 113.71875 226.089844 114.300781 223.609375 114.566406 221.65625 C 114.695312 220.804688 114.761719 220.023438 114.824219 219.371094 C 114.433594 219.695312 114.109375 220.542969 113.390625 221.785156 C 112.605469 223.15625 111.433594 224.980469 109.082031 228.375 C 106.734375 231.703125 103.214844 236.59375 99.820312 242.011719 C 96.488281 247.359375 93.296875 253.167969 90.617188 257.996094 C 79.59375 277.636719 83.960938 262.5625 82.007812 282.269531 C 81.742188 284.289062 81.484375 286.378906 81.15625 288.46875 C 81.222656 288.335938 81.289062 288.207031 81.351562 288.011719 Z M 98.054688 301.125 C 97.730469 301.84375 97.40625 302.628906 97.011719 303.476562 C 95.902344 305.824219 94.335938 308.628906 93.226562 310.847656 C 92.117188 313.003906 91.53125 314.570312 91.398438 315.285156 C 91.207031 315.9375 91.464844 315.742188 92.25 314.4375 C 93.03125 313.066406 94.273438 310.589844 95.511719 308.175781 C 96.816406 305.695312 98.121094 303.34375 98.902344 301.777344 L 98.96875 301.585938 C 98.644531 302.496094 98.253906 303.667969 97.730469 305.171875 C 96.359375 309.023438 94.078125 314.894531 91.53125 320.3125 C 88.921875 325.660156 86.050781 330.550781 82.722656 335.058594 C 79.398438 339.621094 75.609375 343.796875 71.761719 347.582031 C 67.910156 351.433594 64.0625 354.890625 59.363281 360.109375 C 54.664062 365.332031 49.183594 372.246094 43.898438 379.488281 C 38.546875 386.796875 33.328125 394.367188 28.957031 400.566406 C 24.585938 406.699219 21.0625 411.394531 18.648438 414.140625 C 16.234375 416.878906 14.929688 417.726562 13.558594 417.789062 C 12.1875 417.855469 10.75 417.136719 9.773438 416.484375 C 8.730469 415.835938 8.207031 415.117188 8.859375 414.269531 C 9.515625 413.355469 11.40625 412.246094 15.910156 407.613281 C 20.34375 402.914062 27.457031 394.695312 32.417969 388.429688 C 37.308594 382.230469 40.113281 378.054688 42.464844 373.488281 C 44.746094 368.984375 47.097656 363.636719 47.878906 359.132812 C 48.203125 357.304688 48.335938 355.609375 48.269531 353.914062 C 48.335938 353.519531 48.46875 353.066406 48.535156 352.542969 C 48.597656 351.5 48.664062 350.191406 48.597656 348.890625 C 48.597656 347.582031 48.535156 346.210938 48.335938 344.191406 C 48.203125 342.167969 47.945312 339.621094 47.683594 337.207031 C 47.488281 334.792969 47.226562 332.707031 46.574219 329.898438 C 45.921875 327.160156 44.8125 323.703125 44.03125 321.679688 C 43.3125 319.59375 42.988281 318.875 42.855469 318.875 C 42.726562 318.875 42.855469 319.59375 43.179688 320.960938 C 43.574219 322.398438 44.09375 324.355469 44.746094 326.964844 C 45.335938 329.511719 45.988281 332.578125 46.378906 336.292969 C 46.773438 339.75 46.96875 343.796875 47.164062 346.996094 C 47.03125 346.671875 46.96875 346.34375 46.902344 346.082031 C 45.59375 341.253906 42.855469 335.773438 39.917969 330.292969 C 36.917969 324.746094 33.265625 319.199219 29.675781 312.738281 C 26.019531 306.347656 22.367188 299.039062 19.496094 289.964844 C 16.691406 280.832031 14.667969 269.9375 13.363281 262.5 C 11.992188 255.125 11.339844 251.339844 10.886719 249.1875 L 10.816406 248.859375 C 11.40625 250.363281 12.1875 252.191406 13.035156 253.886719 C 14.34375 256.695312 15.644531 259.171875 16.628906 261.585938 C 17.671875 263.9375 18.453125 266.28125 18.84375 267.523438 C 19.234375 268.761719 19.300781 268.828125 19.429688 268.308594 C 19.496094 267.785156 19.496094 266.675781 18.648438 264.066406 C 17.800781 261.523438 16.039062 257.539062 14.667969 254.28125 C 13.949219 252.582031 13.300781 251.082031 12.710938 249.839844 C 13.882812 251.472656 15.582031 253.753906 18.257812 256.5625 C 22.304688 261 28.5 266.675781 33.394531 272.289062 C 38.222656 277.898438 41.808594 283.378906 44.488281 289.183594 C 47.164062 294.996094 48.921875 301.191406 50.035156 307.84375 C 51.207031 314.503906 51.667969 321.742188 51.667969 327.75 C 51.667969 333.75 51.207031 338.578125 50.75 342.625 C 50.359375 346.671875 50.035156 350.0625 50.035156 352.542969 C 50.035156 355.023438 50.359375 356.71875 51.144531 357.242188 C 51.859375 357.761719 53.035156 357.109375 54.46875 354.695312 C 55.839844 352.21875 57.472656 348.042969 59.886719 340.929688 C 61.453125 336.292969 63.28125 330.488281 64.976562 325.007812 C 65.105469 324.484375 65.367188 323.832031 65.757812 322.855469 C 66.476562 321.09375 67.519531 318.480469 68.890625 315.285156 C 70.257812 312.15625 71.890625 308.5 73.652344 303.863281 C 75.417969 299.234375 77.242188 293.625 78.285156 289.445312 C 78.9375 287.03125 79.261719 285.140625 79.460938 283.640625 C 79.722656 282.398438 79.851562 280.898438 79.980469 278.222656 C 80.113281 274.898438 80.175781 269.679688 79.917969 263.9375 C 79.65625 259.433594 79.199219 255.78125 79.527344 251.210938 C 79.65625 248.667969 80.113281 245.011719 80.441406 240.382812 C 80.828125 235.683594 81.09375 229.941406 81.222656 226.285156 C 81.417969 221.65625 81.09375 217.609375 80.828125 212.910156 C 80.308594 205.40625 79.261719 197.839844 78.9375 190.464844 C 78.808594 188.699219 78.808594 186.484375 78.808594 183.742188 C 78.875 181.003906 78.9375 177.804688 78.875 173.105469 C 78.742188 166.847656 78.808594 159.339844 78.089844 153.207031 C 77.503906 148.054688 76.066406 141.59375 74.699219 136.371094 C 73.328125 131.152344 72.019531 127.171875 70.78125 123.585938 C 69.871094 120.777344 68.890625 118.039062 67.976562 115.230469 C 66.933594 111.96875 65.824219 108.769531 64.847656 105.445312 C 63.734375 101.855469 62.625 97.8125 61.320312 94.222656 C 60.734375 92.523438 59.753906 90.042969 58.121094 86.390625 C 56.558594 82.804688 54.339844 78.039062 51.859375 73.472656 C 49.382812 68.90625 46.640625 64.597656 43.117188 59.96875 C 39.59375 55.269531 35.355469 50.3125 30.71875 45.613281 C 26.019531 40.847656 21.0625 36.347656 17.082031 32.171875 C 13.230469 28.058594 10.363281 24.277344 8.273438 20.621094 C 6.1875 16.96875 4.816406 13.445312 3.835938 10.378906 C 2.859375 7.308594 2.269531 4.765625 1.617188 3.132812 C 1.292969 2.285156 0.964844 1.699219 0.769531 1.242188 C 1.683594 2.027344 2.792969 2.875 3.902344 3.851562 C 5.46875 5.089844 6.96875 6.527344 8.207031 7.703125 C 9.382812 8.875 10.296875 9.917969 10.949219 10.441406 C 11.667969 11.03125 12.121094 11.097656 12.058594 10.832031 C 11.992188 10.574219 11.40625 9.984375 10.167969 8.683594 C 8.859375 7.375 6.96875 5.351562 5.339844 3.851562 C 3.707031 2.285156 2.335938 1.179688 1.226562 0.261719 C 1.945312 0.261719 3.25 0.589844 5.402344 1.308594 C 8.472656 2.351562 13.300781 4.175781 17.863281 6.984375 C 22.367188 9.855469 26.609375 13.640625 29.808594 17.421875 C 33.003906 21.207031 35.21875 25.058594 37.503906 30.734375 C 39.789062 36.414062 42.140625 43.914062 44.292969 50.3125 C 45.070312 52.789062 45.921875 55.074219 46.640625 57.160156 C 45.269531 54.550781 43.574219 51.480469 42.140625 49.132812 C 40.179688 46 38.8125 44.367188 37.699219 43.003906 C 36.527344 41.628906 35.613281 40.589844 35.285156 40.394531 C 35.027344 40.128906 35.355469 40.652344 36.265625 41.957031 C 37.246094 43.261719 38.746094 45.351562 40.3125 47.960938 C 41.945312 50.570312 43.511719 53.703125 45.007812 56.441406 C 46.445312 58.988281 47.816406 61.207031 48.664062 62.578125 C 49.183594 63.816406 49.640625 64.992188 50.101562 66.097656 C 51.859375 70.339844 53.425781 73.601562 54.664062 76.34375 C 55.90625 79.148438 56.820312 81.433594 57.667969 83.585938 C 58.515625 85.738281 59.363281 87.761719 60.082031 89.332031 C 60.800781 90.828125 61.453125 92.199219 62.101562 93.832031 C 63.34375 96.832031 64.847656 100.679688 65.890625 103.683594 C 67.78125 108.769531 67.910156 110.46875 69.152344 115.101562 C 69.539062 116.601562 70.128906 118.558594 70.71875 120.324219 C 71.824219 123.585938 73.066406 126.453125 74.238281 130.109375 C 75.417969 133.761719 76.984375 139.246094 78.15625 144.792969 C 79.328125 150.335938 80.246094 155.882812 80.636719 161.035156 C 81.289062 169.125 80.175781 177.085938 80.175781 185.179688 C 80.246094 188.375 80.375 191.507812 80.570312 194.640625 C 80.765625 197.707031 80.894531 201.03125 81.09375 204.164062 C 81.351562 208.996094 81.875 214.28125 82.070312 218.457031 C 82.332031 222.566406 82.460938 226.15625 82.394531 230.722656 C 82.265625 235.289062 82.007812 240.050781 81.808594 243.3125 C 81.613281 246.578125 81.15625 249.90625 80.960938 253.167969 C 80.828125 256.105469 80.960938 259.5625 81.027344 262.234375 C 81.222656 268.046875 81.742188 272.941406 81.222656 278.941406 C 80.828125 282.988281 80.046875 287.816406 79.199219 291.925781 C 78.351562 296.035156 77.566406 299.558594 76.914062 301.84375 C 75.675781 306.347656 73.390625 310.78125 71.695312 315.21875 C 70.457031 318.417969 69.347656 321.417969 68.433594 324.027344 C 66.476562 330.035156 67.390625 330.550781 64.257812 336.820312 C 63.214844 338.902344 62.625 340.46875 61.519531 343.40625 C 60.40625 346.34375 59.300781 349.800781 58.449219 352.152344 C 57.667969 354.566406 57.144531 355.933594 56.949219 356.652344 C 56.753906 357.4375 56.886719 357.632812 57.015625 357.761719 C 57.144531 357.894531 57.210938 357.894531 57.410156 357.761719 C 57.601562 357.632812 57.925781 357.242188 58.191406 356.78125 C 58.257812 356.652344 58.257812 356.457031 58.320312 356.328125 C 58.386719 356.328125 58.386719 356.261719 58.386719 356.261719 C 58.90625 355.933594 60.015625 354.695312 61.714844 353.132812 C 63.410156 351.5625 65.757812 349.671875 67.519531 348.105469 C 69.28125 346.542969 70.457031 345.296875 71.5 344.125 C 72.542969 342.949219 73.457031 341.710938 72.9375 342.101562 C 72.414062 342.429688 70.523438 344.386719 67.910156 346.800781 C 65.300781 349.152344 61.972656 352.019531 60.34375 353.390625 C 59.558594 353.976562 59.167969 354.304688 58.90625 354.433594 C 59.234375 353.453125 59.953125 352.085938 60.734375 349.800781 C 61.519531 347.519531 62.691406 344.253906 64.128906 340.992188 C 65.5625 337.730469 67.457031 333.75 68.496094 332.121094 C 69.609375 330.488281 69.609375 330.292969 70.128906 329.640625 C 71.4375 328.203125 73.261719 326.050781 75.742188 323.375 C 78.9375 319.851562 83.308594 315.546875 86.835938 312.21875 C 90.421875 308.957031 93.226562 306.738281 95.1875 304.648438 C 96.421875 303.34375 97.339844 302.167969 98.054688 301.125 Z M 61.320312 42.542969 C 61.84375 43.65625 62.820312 45.546875 63.472656 47.503906 C 64.128906 49.398438 64.453125 51.289062 64.714844 52.917969 C 64.976562 54.488281 65.171875 55.722656 65.300781 56.570312 C 65.496094 57.488281 65.695312 57.878906 65.890625 57.941406 C 66.019531 58.007812 66.082031 57.683594 65.953125 56.507812 C 65.824219 55.332031 65.496094 53.375 65.039062 51.351562 C 64.582031 49.332031 63.996094 47.242188 63.472656 45.675781 C 63.085938 44.632812 62.691406 43.785156 62.429688 43.199219 C 63.015625 43.851562 63.933594 44.828125 65.105469 46.460938 C 66.671875 48.613281 68.757812 51.875 70.523438 56.050781 C 72.285156 60.226562 73.785156 65.445312 74.371094 70.078125 C 74.957031 74.714844 74.699219 78.824219 74.175781 82.738281 C 73.71875 86.585938 73.066406 90.179688 72.347656 93.242188 C 71.628906 96.246094 70.847656 98.722656 70.128906 101.136719 C 69.410156 103.554688 68.828125 105.902344 68.5625 107.597656 C 68.496094 107.726562 68.496094 107.859375 68.496094 108.054688 C 68.433594 107.792969 68.367188 107.597656 68.304688 107.402344 C 68.171875 107.140625 68.109375 106.816406 67.976562 106.554688 C 67.976562 106.097656 67.976562 105.574219 67.910156 104.988281 C 67.910156 103.554688 67.910156 101.855469 68.042969 99.507812 C 68.109375 97.15625 68.367188 94.089844 68.433594 92.003906 C 68.5625 89.914062 68.628906 88.808594 68.5625 88.347656 C 68.433594 87.894531 68.238281 88.152344 68.042969 89 C 67.84375 89.914062 67.78125 91.546875 67.585938 94.351562 C 67.457031 97.15625 67.324219 101.074219 67.390625 103.683594 C 67.390625 104.207031 67.457031 104.660156 67.457031 105.054688 C 63.410156 93.503906 61.382812 81.171875 60.863281 68.90625 C 60.671875 64.144531 61.058594 59.378906 61.382812 55.660156 C 61.714844 51.941406 61.972656 49.332031 61.90625 47.242188 C 61.84375 45.152344 61.519531 43.589844 61.320312 42.808594 C 61.320312 42.671875 61.253906 42.542969 61.253906 42.476562 Z M 11.667969 61.597656 C 13.496094 62.25 16.628906 63.425781 19.429688 64.726562 C 22.234375 65.96875 24.71875 67.339844 26.085938 68.1875 C 27.457031 68.972656 27.71875 69.363281 27.328125 69.296875 C 26.933594 69.230469 25.761719 68.773438 24.128906 67.925781 C 22.5 67.140625 20.34375 66.035156 18.324219 65.054688 C 16.234375 64.078125 14.277344 63.296875 12.90625 62.835938 C 11.929688 62.445312 11.273438 62.25 10.75 62.117188 C 10.75 62.445312 11.210938 63.03125 12.058594 63.878906 C 12.972656 64.726562 14.277344 65.839844 17.410156 68.644531 C 20.472656 71.449219 25.304688 75.886719 30.914062 79.800781 C 36.527344 83.652344 42.921875 86.914062 47.554688 89.71875 C 52.121094 92.457031 54.929688 94.742188 57.078125 96.960938 C 59.234375 99.117188 60.734375 101.136719 62.367188 103.941406 C 63.28125 105.445312 64.191406 107.203125 65.105469 109.035156 C 64.78125 107.988281 64.257812 106.03125 63.605469 104.011719 C 63.472656 103.746094 63.34375 103.421875 63.148438 103.160156 C 62.429688 101.855469 61.382812 100.09375 59.824219 98.070312 C 58.257812 96.050781 56.101562 93.699219 54.210938 91.875 C 52.316406 90.042969 50.683594 88.613281 49.707031 87.699219 C 48.792969 86.78125 48.597656 86.390625 48.859375 86.523438 C 49.183594 86.585938 50.035156 87.238281 51.402344 88.414062 C 52.773438 89.589844 54.601562 91.285156 56.691406 93.570312 C 58.710938 95.921875 60.996094 98.789062 62.367188 100.679688 C 62.429688 100.878906 62.5625 101.007812 62.691406 101.136719 C 62.496094 100.679688 62.300781 100.160156 62.101562 99.703125 C 61.648438 98.722656 61.382812 97.8125 60.863281 97.484375 C 60.34375 97.09375 59.300781 95.855469 57.992188 93.894531 C 56.753906 91.875 55.125 89 52.902344 85.738281 C 50.75 82.476562 48.074219 78.824219 44.488281 75.496094 C 40.960938 72.101562 36.527344 68.972656 32.089844 66.816406 C 27.71875 64.597656 23.347656 63.296875 19.953125 62.578125 C 16.5625 61.859375 14.277344 61.664062 12.777344 61.597656 C 12.316406 61.597656 11.929688 61.597656 11.667969 61.597656 Z M 77.503906 175.066406 C 76.523438 172.78125 74.632812 168.542969 72.871094 165.472656 C 71.105469 162.40625 69.539062 160.582031 68.757812 159.539062 C 67.910156 158.492188 67.84375 158.230469 68.042969 158.230469 C 68.171875 158.296875 68.5625 158.554688 69.476562 159.667969 C 70.390625 160.777344 71.890625 162.800781 73.195312 164.757812 C 74.433594 166.777344 75.480469 168.738281 76.199219 169.976562 C 76.914062 171.28125 77.242188 171.804688 77.503906 172.324219 C 77.632812 172.585938 77.765625 172.847656 77.894531 173.105469 C 77.894531 172.195312 77.894531 171.347656 77.832031 170.433594 C 77.832031 164.101562 77.765625 163.191406 75.085938 157.125 C 73.980469 154.445312 72.414062 151.707031 70.0625 147.921875 C 67.648438 144.074219 64.386719 139.179688 59.558594 133.890625 C 54.796875 128.609375 48.46875 122.996094 42.660156 118.691406 C 36.851562 114.449219 31.566406 111.515625 27.0625 109.097656 C 22.628906 106.683594 18.90625 104.792969 17.082031 104.011719 C 16.757812 103.878906 16.429688 103.746094 16.234375 103.683594 C 16.492188 104.011719 16.300781 103.8125 17.082031 104.59375 C 17.929688 105.3125 20.148438 107.535156 22.5625 109.949219 C 24.914062 112.296875 24.195312 111.316406 26.152344 113.664062 C 28.109375 116.015625 29.21875 117.515625 29.21875 117.84375 C 29.21875 118.167969 28.109375 117.320312 26.675781 115.882812 C 25.238281 114.382812 27.128906 116.277344 24.390625 113.339844 C 21.585938 110.46875 17.800781 106.816406 15.84375 104.59375 L 15.710938 104.398438 C 15.84375 104.726562 15.972656 105.25 16.234375 105.835938 C 17.082031 107.988281 18.710938 111.773438 22.234375 117.320312 C 25.761719 122.867188 31.109375 130.109375 36.460938 136.5 C 41.808594 142.898438 47.097656 148.378906 52.316406 153.402344 C 57.539062 158.359375 62.757812 162.800781 66.605469 166.847656 C 70.523438 170.890625 73.195312 174.542969 75.085938 178.71875 C 76.265625 181.328125 77.175781 184.070312 77.894531 187.203125 C 77.894531 185.703125 77.832031 183.9375 77.832031 182.046875 C 77.832031 180.089844 77.832031 178 77.894531 175.914062 Z M 80.503906 151.640625 C 80.894531 149.683594 81.808594 146.03125 82.394531 143.089844 C 83.050781 140.222656 83.375 138.132812 83.703125 136.699219 C 83.960938 135.328125 84.222656 134.609375 84.355469 134.546875 C 84.550781 134.480469 84.617188 135.070312 84.355469 137.027344 C 84.027344 138.980469 83.375 142.308594 82.789062 145.3125 C 82.136719 148.3125 81.484375 150.921875 81.15625 152.617188 C 80.960938 153.402344 80.828125 153.992188 80.765625 154.445312 C 81.15625 157.058594 81.417969 159.472656 81.613281 161.558594 C 81.941406 165.144531 81.941406 167.757812 81.875 170.109375 C 82.460938 168.082031 83.242188 166.0625 84.15625 163.714844 C 85.722656 159.734375 87.8125 154.644531 89.640625 149.355469 C 91.398438 144.074219 92.964844 138.527344 93.816406 133.238281 C 94.726562 127.957031 94.925781 122.933594 94.726562 117.320312 C 94.46875 111.773438 93.878906 105.640625 93.160156 101.53125 C 92.640625 98.269531 92.117188 96.308594 91.730469 95.265625 C 91.664062 96.636719 91.53125 98.464844 91.335938 100.421875 C 91.074219 103.03125 90.617188 105.902344 90.164062 108.1875 C 89.703125 110.46875 89.25 112.097656 88.921875 112.75 C 88.660156 113.40625 88.53125 113.078125 88.597656 112.035156 C 88.726562 110.988281 89.050781 109.230469 89.445312 107.203125 C 89.832031 105.183594 90.292969 102.898438 90.550781 100.550781 C 90.816406 98.398438 90.945312 96.113281 91.011719 94.613281 C 90.878906 94.808594 90.816406 95.136719 90.683594 95.527344 C 90.355469 96.375 89.898438 97.417969 88.53125 99.507812 C 87.160156 101.660156 84.875 104.859375 82.789062 108.25 C 80.699219 111.644531 78.875 115.359375 77.695312 118.429688 C 72.21875 133.699219 74.566406 123.585938 79.070312 144.65625 C 79.59375 147.203125 80.046875 149.683594 80.375 152.03125 C 80.441406 151.902344 80.441406 151.769531 80.503906 151.640625 Z M 84.09375 228.960938 C 85.269531 226.285156 87.683594 221.589844 89.25 218.328125 C 90.878906 215.066406 91.730469 213.300781 92.183594 212.125 C 92.707031 211.019531 92.835938 210.496094 92.835938 210.691406 C 92.835938 210.886719 92.773438 211.867188 92.3125 213.234375 C 91.921875 214.671875 91.140625 216.496094 90.097656 218.78125 C 89.050781 221.066406 87.683594 223.738281 86.636719 225.828125 C 85.59375 227.851562 84.941406 229.289062 84.421875 230.394531 C 83.898438 231.570312 83.574219 232.417969 83.375 233.203125 C 83.308594 233.398438 83.242188 233.59375 83.242188 233.726562 C 83.113281 236.59375 82.984375 239.269531 82.984375 240.707031 C 82.917969 242.925781 82.789062 242.660156 82.722656 243.511719 C 83.242188 241.617188 83.765625 239.792969 84.355469 238.097656 C 85.070312 235.878906 85.851562 233.988281 87.746094 231.046875 C 89.574219 228.113281 92.511719 224.132812 95.445312 219.5 C 98.382812 214.800781 101.382812 209.515625 103.601562 204.6875 C 105.886719 199.859375 107.453125 195.425781 108.300781 191.378906 C 109.214844 187.269531 109.472656 183.546875 109.277344 179.046875 C 109.148438 174.542969 108.496094 169.324219 107.90625 165.667969 C 107.453125 163.125 107.058594 161.363281 106.734375 160.386719 C 106.667969 161.101562 106.539062 161.882812 106.476562 162.601562 C 106.277344 164.039062 106.144531 165.214844 106.015625 167.300781 C 105.820312 169.519531 105.625 172.652344 105.429688 174.738281 C 105.101562 176.828125 104.777344 177.871094 104.644531 177.871094 C 104.449219 177.871094 104.386719 176.761719 104.449219 175.714844 C 104.515625 174.738281 104.777344 173.695312 104.972656 171.605469 C 105.234375 169.457031 105.496094 166.191406 105.625 163.714844 C 105.757812 162.34375 105.820312 161.167969 105.820312 160.253906 C 105.691406 160.710938 105.5625 161.363281 105.363281 162.210938 C 104.84375 164.234375 103.929688 167.171875 102.234375 171.085938 C 100.601562 174.933594 98.121094 179.828125 95.707031 185.570312 C 93.296875 191.378906 91.011719 198.035156 89.183594 203.253906 C 87.417969 208.476562 85.988281 212.191406 85.203125 214.347656 C 83.308594 219.433594 83.179688 218.910156 83.242188 221.128906 C 83.375 224.070312 83.308594 227.65625 83.308594 228.375 C 83.308594 229.222656 83.308594 230.070312 83.308594 230.917969 C 83.4375 230.460938 83.703125 229.808594 84.09375 228.960938 Z M 22.890625 153.664062 C 24.066406 155.164062 26.019531 157.449219 27.71875 159.402344 C 29.609375 161.558594 31.242188 163.382812 32.351562 164.691406 C 33.394531 165.996094 33.980469 166.777344 34.242188 166.976562 C 34.4375 167.105469 34.4375 166.710938 33.722656 165.667969 C 33.070312 164.625 31.699219 162.867188 30.066406 160.839844 C 28.4375 158.820312 26.414062 156.40625 25.109375 154.773438 C 24.453125 153.992188 24 153.402344 23.542969 152.945312 C 24.453125 153.207031 25.957031 153.925781 27.71875 154.773438 C 29.871094 155.882812 32.351562 157.125 36.265625 159.601562 C 40.246094 162.148438 45.726562 165.929688 50.683594 170.039062 C 55.644531 174.152344 60.082031 178.652344 63.148438 182.375 C 66.214844 186.027344 67.84375 188.964844 69.609375 192.292969 C 71.371094 195.683594 73.261719 199.535156 74.566406 203.058594 C 75.871094 206.578125 76.589844 209.777344 77.308594 213.105469 C 77.960938 216.496094 78.613281 219.957031 79.070312 222.4375 C 80.046875 227.71875 80.246094 228.113281 79.917969 233.855469 C 79.851562 234.308594 79.851562 234.769531 79.785156 235.289062 C 79.785156 235.160156 79.785156 235.09375 79.722656 234.964844 C 79.527344 234.179688 79.199219 233.074219 78.679688 231.441406 C 78.15625 229.808594 77.4375 227.65625 76.460938 225.371094 C 75.546875 223.085938 74.371094 220.675781 73.652344 219.371094 C 72.9375 218.0625 72.609375 217.933594 72.609375 218.0625 C 72.609375 218.261719 72.871094 218.847656 73.261719 219.628906 C 73.585938 220.476562 74.046875 221.523438 74.957031 223.871094 C 75.871094 226.21875 77.308594 229.941406 78.15625 233.464844 C 78.875 236.335938 79.199219 239.074219 79.398438 241.164062 C 79.199219 243.121094 79.070312 244.945312 78.9375 246.511719 C 78.742188 248.273438 78.613281 249.710938 78.480469 250.886719 C 78.15625 249.1875 77.832031 247.425781 77.371094 245.730469 C 75.742188 239.46875 73.195312 233.203125 69.019531 226.613281 C 64.910156 220.023438 59.234375 213.039062 53.816406 207.101562 C 48.335938 201.167969 43.117188 196.207031 39.007812 191.636719 C 34.894531 187.070312 31.894531 182.765625 29.675781 178.523438 C 27.523438 174.285156 26.019531 170.039062 25.171875 166.128906 C 24.324219 162.210938 24.128906 158.6875 23.605469 156.339844 C 23.347656 155.097656 23.019531 154.25 22.890625 153.664062 Z M 19.691406 205.601562 C 21.386719 208.144531 24.785156 212.585938 27.0625 215.714844 C 29.347656 218.78125 30.527344 220.605469 31.308594 221.71875 C 32.15625 222.828125 32.742188 223.15625 32.804688 222.957031 C 32.941406 222.761719 32.609375 221.980469 31.042969 219.628906 C 29.414062 217.214844 26.609375 213.234375 24.519531 210.234375 C 22.953125 207.886719 21.84375 206.191406 20.933594 204.949219 C 22.5625 206.125 25.109375 208.277344 28.175781 210.429688 C 31.699219 213.039062 35.9375 215.78125 40.3125 218.847656 C 44.683594 221.914062 49.253906 225.242188 53.363281 229.15625 C 57.539062 233.007812 61.191406 237.378906 63.933594 241.292969 C 66.738281 245.210938 68.691406 248.730469 70.390625 253.367188 C 72.089844 257.929688 73.652344 263.609375 74.503906 268.761719 C 75.285156 273.851562 75.480469 278.417969 75.480469 281.488281 C 75.609375 285.53125 76.460938 288.207031 75.9375 291.863281 C 75.742188 290.425781 75.480469 288.269531 74.957031 285.921875 C 74.503906 283.511719 73.851562 280.832031 72.609375 277.699219 C 71.4375 274.570312 69.609375 271.046875 68.496094 268.960938 C 67.324219 266.871094 66.738281 266.347656 66.414062 266.152344 C 66.082031 266.023438 66.019531 266.28125 66.542969 267.261719 C 67.128906 268.242188 68.304688 270.003906 69.476562 272.484375 C 70.652344 275.027344 71.890625 278.289062 72.804688 282.527344 C 73.652344 286.707031 74.304688 291.796875 74.632812 294.796875 C 74.699219 295.578125 74.761719 296.167969 74.761719 296.691406 C 74.238281 298.777344 73.523438 301.125 72.609375 303.539062 C 70.914062 308.042969 69.019531 312.089844 67.648438 315.480469 L 67.648438 315.546875 C 69.347656 308.957031 69.933594 304.976562 69.933594 301.125 C 70 297.144531 69.410156 293.363281 68.042969 289.445312 C 66.671875 285.597656 64.515625 281.683594 60.863281 276.722656 C 57.210938 271.828125 51.992188 265.957031 46.835938 259.957031 C 41.679688 254.015625 36.589844 248.078125 32.480469 241.164062 C 28.304688 234.246094 25.109375 226.484375 22.953125 220.152344 C 20.804688 213.886719 19.691406 209.125 19.171875 206.515625 C 18.972656 205.472656 18.84375 204.753906 18.90625 204.363281 C 19.105469 204.6875 19.367188 205.144531 19.691406 205.601562 " fill-opacity="1" fill-rule="evenodd"/></g></g></g></g></g><g clip-path="url(#b75b80fbc6)"><g mask="url(#45777e7952)"><g transform="matrix(1, 0, 0, 1, 0, 173)"><g clip-path="url(#0d561eac1d)"><g clip-path="url(#4dcdfcf2ca)"><path fill="#93b67e" d="M 35.050781 288.011719 C 34.070312 286.1875 32.304688 283.511719 30.742188 281.226562 C 29.242188 278.941406 27.9375 276.917969 26.894531 275.484375 C 25.914062 273.984375 25.195312 273.070312 25 273.007812 C 24.738281 272.941406 24.933594 273.722656 25.851562 275.355469 C 26.699219 276.917969 28.328125 279.398438 29.894531 281.8125 C 31.523438 284.226562 33.15625 286.640625 34.265625 288.402344 C 34.917969 289.445312 35.375 290.296875 35.703125 290.882812 C 35.898438 291.925781 36.09375 292.90625 36.285156 293.882812 C 36.808594 296.167969 37.269531 298.324219 37.789062 300.214844 C 37.136719 299.167969 36.351562 298.125 35.570312 297.078125 C 33.351562 294.40625 30.609375 291.730469 27.28125 288.335938 C 23.890625 284.941406 19.910156 280.832031 16.386719 275.9375 C 12.867188 271.046875 9.863281 265.371094 7.644531 260.34375 C 5.425781 255.320312 4.121094 250.886719 3.011719 246.640625 C 1.902344 242.335938 1.054688 238.292969 0.53125 233.921875 C 0.0742188 229.546875 0.0117188 224.980469 0.207031 222.371094 C 0.335938 220.871094 0.53125 220.023438 0.792969 219.628906 C 0.859375 220.089844 0.921875 220.675781 0.988281 221.324219 C 1.3125 223.414062 1.835938 226.417969 2.425781 228.765625 C 2.945312 231.113281 3.46875 232.875 3.925781 233.921875 C 4.316406 234.898438 4.710938 235.09375 4.773438 234.898438 C 4.839844 234.703125 4.574219 234.050781 4.25 232.941406 C 3.925781 231.832031 3.597656 230.199219 3.144531 228.113281 C 2.683594 226.089844 2.097656 223.609375 1.835938 221.65625 C 1.707031 220.804688 1.640625 220.023438 1.578125 219.371094 C 1.964844 219.695312 2.292969 220.542969 3.011719 221.785156 C 3.792969 223.15625 4.96875 224.980469 7.320312 228.375 C 9.667969 231.703125 13.1875 236.59375 16.582031 242.011719 C 19.910156 247.359375 23.105469 253.167969 25.78125 257.996094 C 36.808594 277.636719 32.441406 262.5625 34.394531 282.269531 C 34.65625 284.289062 34.917969 286.378906 35.246094 288.46875 C 35.179688 288.335938 35.113281 288.207031 35.050781 288.011719 Z M 18.34375 301.125 C 18.671875 301.84375 18.996094 302.628906 19.390625 303.476562 C 20.5 305.824219 22.066406 308.628906 23.171875 310.847656 C 24.285156 313.003906 24.867188 314.570312 25 315.285156 C 25.195312 315.9375 24.933594 315.742188 24.148438 314.4375 C 23.367188 313.066406 22.128906 310.589844 20.886719 308.175781 C 19.585938 305.695312 18.277344 303.34375 17.496094 301.777344 L 17.429688 301.585938 C 17.757812 302.496094 18.148438 303.667969 18.671875 305.171875 C 20.039062 309.023438 22.324219 314.894531 24.867188 320.3125 C 27.480469 325.660156 30.351562 330.550781 33.679688 335.058594 C 37.003906 339.621094 40.792969 343.796875 44.640625 347.582031 C 48.488281 351.433594 52.339844 354.890625 57.039062 360.109375 C 61.734375 365.332031 67.214844 372.246094 72.503906 379.488281 C 77.851562 386.796875 83.074219 394.367188 87.445312 400.566406 C 91.8125 406.699219 95.339844 411.394531 97.753906 414.140625 C 100.167969 416.878906 101.472656 417.726562 102.84375 417.789062 C 104.214844 417.855469 105.648438 417.136719 106.628906 416.484375 C 107.671875 415.835938 108.191406 415.117188 107.542969 414.269531 C 106.886719 413.355469 104.996094 412.246094 100.492188 407.613281 C 96.058594 402.914062 88.945312 394.695312 83.984375 388.429688 C 79.09375 382.230469 76.285156 378.054688 73.933594 373.488281 C 71.65625 368.984375 69.304688 363.636719 68.523438 359.132812 C 68.195312 357.304688 68.0625 355.609375 68.128906 353.914062 C 68.0625 353.519531 67.933594 353.066406 67.867188 352.542969 C 67.804688 351.5 67.738281 350.191406 67.804688 348.890625 C 67.804688 347.582031 67.867188 346.210938 68.0625 344.191406 C 68.195312 342.167969 68.457031 339.621094 68.71875 337.207031 C 68.910156 334.792969 69.175781 332.707031 69.824219 329.898438 C 70.476562 327.160156 71.589844 323.703125 72.371094 321.679688 C 73.085938 319.59375 73.414062 318.875 73.546875 318.875 C 73.675781 318.875 73.546875 319.59375 73.222656 320.960938 C 72.828125 322.398438 72.304688 324.355469 71.65625 326.964844 C 71.066406 329.511719 70.414062 332.578125 70.023438 336.292969 C 69.628906 339.75 69.433594 343.796875 69.238281 346.996094 C 69.371094 346.671875 69.433594 346.34375 69.5 346.082031 C 70.808594 341.253906 73.546875 335.773438 76.484375 330.292969 C 79.480469 324.746094 83.136719 319.199219 86.726562 312.738281 C 90.382812 306.347656 94.035156 299.039062 96.90625 289.964844 C 99.710938 280.832031 101.734375 269.9375 103.039062 262.5 C 104.410156 255.125 105.0625 251.339844 105.515625 249.1875 L 105.582031 248.859375 C 104.996094 250.363281 104.214844 252.191406 103.367188 253.886719 C 102.058594 256.695312 100.753906 259.171875 99.773438 261.585938 C 98.730469 263.9375 97.949219 266.28125 97.554688 267.523438 C 97.167969 268.761719 97.101562 268.828125 96.972656 268.308594 C 96.90625 267.785156 96.90625 266.675781 97.753906 264.066406 C 98.601562 261.523438 100.363281 257.539062 101.734375 254.28125 C 102.449219 252.582031 103.101562 251.082031 103.691406 249.839844 C 102.515625 251.472656 100.816406 253.753906 98.144531 256.5625 C 94.097656 261 87.902344 266.675781 83.007812 272.289062 C 78.179688 277.898438 74.589844 283.378906 71.914062 289.183594 C 69.238281 294.996094 67.480469 301.191406 66.367188 307.84375 C 65.195312 314.503906 64.734375 321.742188 64.734375 327.75 C 64.734375 333.75 65.195312 338.578125 65.648438 342.625 C 66.042969 346.671875 66.367188 350.0625 66.367188 352.542969 C 66.367188 355.023438 66.042969 356.71875 65.257812 357.242188 C 64.542969 357.761719 63.367188 357.109375 61.933594 354.695312 C 60.5625 352.21875 58.929688 348.042969 56.515625 340.929688 C 54.949219 336.292969 53.121094 330.488281 51.425781 325.007812 C 51.296875 324.484375 51.03125 323.832031 50.644531 322.855469 C 49.925781 321.09375 48.882812 318.480469 47.511719 315.285156 C 46.140625 312.15625 44.507812 308.5 42.746094 303.863281 C 40.984375 299.234375 39.160156 293.625 38.117188 289.445312 C 37.464844 287.03125 37.136719 285.140625 36.941406 283.640625 C 36.679688 282.398438 36.550781 280.898438 36.417969 278.222656 C 36.285156 274.898438 36.222656 269.679688 36.484375 263.9375 C 36.746094 259.433594 37.199219 255.78125 36.875 251.210938 C 36.746094 248.667969 36.285156 245.011719 35.960938 240.382812 C 35.570312 235.683594 35.308594 229.941406 35.179688 226.285156 C 34.984375 221.65625 35.308594 217.609375 35.570312 212.910156 C 36.09375 205.40625 37.136719 197.839844 37.464844 190.464844 C 37.59375 188.699219 37.59375 186.484375 37.59375 183.742188 C 37.527344 181.003906 37.464844 177.804688 37.527344 173.105469 C 37.660156 166.847656 37.59375 159.339844 38.3125 153.207031 C 38.898438 148.054688 40.332031 141.59375 41.703125 136.371094 C 43.074219 131.152344 44.378906 127.171875 45.621094 123.585938 C 46.53125 120.777344 47.511719 118.039062 48.425781 115.230469 C 49.464844 111.96875 50.578125 108.769531 51.554688 105.445312 C 52.664062 101.855469 53.777344 97.8125 55.078125 94.222656 C 55.667969 92.523438 56.644531 90.042969 58.277344 86.390625 C 59.84375 82.804688 62.0625 78.039062 64.542969 73.472656 C 67.019531 68.90625 69.757812 64.597656 73.285156 59.96875 C 76.808594 55.269531 81.046875 50.3125 85.683594 45.613281 C 90.382812 40.847656 95.339844 36.347656 99.320312 32.171875 C 103.167969 28.058594 106.039062 24.277344 108.125 20.621094 C 110.214844 16.96875 111.585938 13.445312 112.566406 10.378906 C 113.542969 7.308594 114.132812 4.765625 114.785156 3.132812 C 115.109375 2.285156 115.433594 1.699219 115.632812 1.242188 C 114.714844 2.027344 113.609375 2.875 112.5 3.851562 C 110.933594 5.089844 109.433594 6.527344 108.191406 7.703125 C 107.019531 8.875 106.105469 9.917969 105.453125 10.441406 C 104.734375 11.03125 104.28125 11.097656 104.34375 10.832031 C 104.410156 10.574219 104.996094 9.984375 106.234375 8.683594 C 107.542969 7.375 109.433594 5.351562 111.0625 3.851562 C 112.695312 2.285156 114.066406 1.179688 115.175781 0.261719 C 114.457031 0.261719 113.152344 0.589844 111 1.308594 C 107.929688 2.351562 103.101562 4.175781 98.539062 6.984375 C 94.035156 9.855469 89.792969 13.640625 86.59375 17.421875 C 83.398438 21.207031 81.179688 25.058594 78.898438 30.734375 C 76.613281 36.414062 74.261719 43.914062 72.109375 50.3125 C 71.328125 52.789062 70.476562 55.074219 69.757812 57.160156 C 71.132812 54.550781 72.828125 51.480469 74.261719 49.132812 C 76.21875 46 77.589844 44.367188 78.699219 43.003906 C 79.875 41.628906 80.789062 40.589844 81.113281 40.394531 C 81.375 40.128906 81.046875 40.652344 80.136719 41.957031 C 79.15625 43.261719 77.65625 45.351562 76.089844 47.960938 C 74.457031 50.570312 72.890625 53.703125 71.390625 56.441406 C 69.957031 58.988281 68.585938 61.207031 67.738281 62.578125 C 67.214844 63.816406 66.761719 64.992188 66.300781 66.097656 C 64.542969 70.339844 62.976562 73.601562 61.734375 76.34375 C 60.496094 79.148438 59.582031 81.433594 58.734375 83.585938 C 57.886719 85.738281 57.039062 87.761719 56.320312 89.332031 C 55.601562 90.828125 54.949219 92.199219 54.296875 93.832031 C 53.058594 96.832031 51.554688 100.679688 50.511719 103.683594 C 48.617188 108.769531 48.488281 110.46875 47.25 115.101562 C 46.859375 116.601562 46.273438 118.558594 45.683594 120.324219 C 44.574219 123.585938 43.335938 126.453125 42.160156 130.109375 C 40.984375 133.761719 39.417969 139.246094 38.246094 144.792969 C 37.070312 150.335938 36.15625 155.882812 35.765625 161.035156 C 35.113281 169.125 36.222656 177.085938 36.222656 185.179688 C 36.15625 188.375 36.027344 191.507812 35.832031 194.640625 C 35.636719 197.707031 35.503906 201.03125 35.308594 204.164062 C 35.050781 208.996094 34.527344 214.28125 34.332031 218.457031 C 34.070312 222.566406 33.9375 226.15625 34.007812 230.722656 C 34.136719 235.289062 34.394531 240.050781 34.589844 243.3125 C 34.785156 246.578125 35.246094 249.90625 35.4375 253.167969 C 35.570312 256.105469 35.4375 259.5625 35.375 262.234375 C 35.179688 268.046875 34.65625 272.941406 35.179688 278.941406 C 35.570312 282.988281 36.351562 287.816406 37.199219 291.925781 C 38.046875 296.035156 38.832031 299.558594 39.484375 301.84375 C 40.726562 306.347656 43.011719 310.78125 44.707031 315.21875 C 45.945312 318.417969 47.054688 321.417969 47.96875 324.027344 C 49.925781 330.035156 49.011719 330.550781 52.144531 336.820312 C 53.1875 338.902344 53.777344 340.46875 54.882812 343.40625 C 55.992188 346.34375 57.101562 349.800781 57.953125 352.152344 C 58.734375 354.566406 59.253906 355.933594 59.453125 356.652344 C 59.648438 357.4375 59.515625 357.632812 59.386719 357.761719 C 59.253906 357.894531 59.1875 357.894531 58.992188 357.761719 C 58.800781 357.632812 58.472656 357.242188 58.210938 356.78125 C 58.144531 356.652344 58.144531 356.457031 58.082031 356.328125 C 58.015625 356.328125 58.015625 356.261719 58.015625 356.261719 C 57.492188 355.933594 56.386719 354.695312 54.6875 353.132812 C 52.992188 351.5625 50.644531 349.671875 48.882812 348.105469 C 47.121094 346.542969 45.945312 345.296875 44.902344 344.125 C 43.859375 342.949219 42.941406 341.710938 43.464844 342.101562 C 43.988281 342.429688 45.878906 344.386719 48.488281 346.800781 C 51.097656 349.152344 54.429688 352.019531 56.058594 353.390625 C 56.84375 353.976562 57.234375 354.304688 57.492188 354.433594 C 57.167969 353.453125 56.449219 352.085938 55.667969 349.800781 C 54.882812 347.519531 53.710938 344.253906 52.273438 340.992188 C 50.839844 337.730469 48.945312 333.75 47.90625 332.121094 C 46.792969 330.488281 46.792969 330.292969 46.273438 329.640625 C 44.964844 328.203125 43.140625 326.050781 40.660156 323.375 C 37.464844 319.851562 33.089844 315.546875 29.566406 312.21875 C 25.980469 308.957031 23.171875 306.738281 21.214844 304.648438 C 19.976562 303.34375 19.0625 302.167969 18.34375 301.125 Z M 55.078125 42.542969 C 54.558594 43.65625 53.578125 45.546875 52.929688 47.503906 C 52.273438 49.398438 51.949219 51.289062 51.6875 52.917969 C 51.425781 54.488281 51.230469 55.722656 51.097656 56.570312 C 50.902344 57.488281 50.707031 57.878906 50.511719 57.941406 C 50.382812 58.007812 50.316406 57.683594 50.449219 56.507812 C 50.578125 55.332031 50.902344 53.375 51.363281 51.351562 C 51.816406 49.332031 52.40625 47.242188 52.929688 45.675781 C 53.316406 44.632812 53.710938 43.785156 53.972656 43.199219 C 53.382812 43.851562 52.46875 44.828125 51.296875 46.460938 C 49.730469 48.613281 47.640625 51.875 45.878906 56.050781 C 44.117188 60.226562 42.617188 65.445312 42.027344 70.078125 C 41.445312 74.714844 41.703125 78.824219 42.226562 82.738281 C 42.683594 86.585938 43.335938 90.179688 44.054688 93.242188 C 44.773438 96.246094 45.554688 98.722656 46.273438 101.136719 C 46.988281 103.554688 47.574219 105.902344 47.835938 107.597656 C 47.90625 107.726562 47.90625 107.859375 47.90625 108.054688 C 47.96875 107.792969 48.035156 107.597656 48.097656 107.402344 C 48.230469 107.140625 48.292969 106.816406 48.425781 106.554688 C 48.425781 106.097656 48.425781 105.574219 48.488281 104.988281 C 48.488281 103.554688 48.488281 101.855469 48.359375 99.507812 C 48.292969 97.15625 48.035156 94.089844 47.96875 92.003906 C 47.835938 89.914062 47.769531 88.808594 47.835938 88.347656 C 47.96875 87.894531 48.164062 88.152344 48.359375 89 C 48.554688 89.914062 48.617188 91.546875 48.816406 94.351562 C 48.945312 97.15625 49.078125 101.074219 49.011719 103.683594 C 49.011719 104.207031 48.945312 104.660156 48.945312 105.054688 C 52.992188 93.503906 55.015625 81.171875 55.539062 68.90625 C 55.730469 64.144531 55.34375 59.378906 55.015625 55.660156 C 54.6875 51.941406 54.429688 49.332031 54.496094 47.242188 C 54.558594 45.152344 54.882812 43.589844 55.078125 42.808594 C 55.078125 42.671875 55.144531 42.542969 55.144531 42.476562 Z M 104.734375 61.597656 C 102.90625 62.25 99.773438 63.425781 96.972656 64.726562 C 94.164062 65.96875 91.683594 67.339844 90.316406 68.1875 C 88.945312 68.972656 88.683594 69.363281 89.074219 69.296875 C 89.464844 69.230469 90.640625 68.773438 92.273438 67.925781 C 93.902344 67.140625 96.058594 66.035156 98.078125 65.054688 C 100.167969 64.078125 102.125 63.296875 103.496094 62.835938 C 104.472656 62.445312 105.128906 62.25 105.648438 62.117188 C 105.648438 62.445312 105.191406 63.03125 104.34375 63.878906 C 103.429688 64.726562 102.125 65.839844 98.992188 68.644531 C 95.925781 71.449219 91.097656 75.886719 85.488281 79.800781 C 79.875 83.652344 73.480469 86.914062 68.847656 89.71875 C 64.28125 92.457031 61.472656 94.742188 59.324219 96.960938 C 57.167969 99.117188 55.667969 101.136719 54.035156 103.941406 C 53.121094 105.445312 52.210938 107.203125 51.296875 109.035156 C 51.621094 107.988281 52.144531 106.03125 52.796875 104.011719 C 52.929688 103.746094 53.058594 103.421875 53.253906 103.160156 C 53.972656 101.855469 55.015625 100.09375 56.578125 98.070312 C 58.144531 96.050781 60.300781 93.699219 62.191406 91.875 C 64.082031 90.042969 65.714844 88.613281 66.695312 87.699219 C 67.609375 86.78125 67.804688 86.390625 67.542969 86.523438 C 67.214844 86.585938 66.367188 87.238281 65 88.414062 C 63.628906 89.589844 61.800781 91.285156 59.710938 93.570312 C 57.691406 95.921875 55.40625 98.789062 54.035156 100.679688 C 53.972656 100.878906 53.839844 101.007812 53.710938 101.136719 C 53.90625 100.679688 54.101562 100.160156 54.296875 99.703125 C 54.753906 98.722656 55.015625 97.8125 55.539062 97.484375 C 56.058594 97.09375 57.101562 95.855469 58.40625 93.894531 C 59.648438 91.875 61.277344 89 63.5 85.738281 C 65.648438 82.476562 68.328125 78.824219 71.914062 75.496094 C 75.4375 72.101562 79.875 68.972656 84.3125 66.816406 C 88.683594 64.597656 93.054688 63.296875 96.449219 62.578125 C 99.839844 61.859375 102.125 61.664062 103.625 61.597656 C 104.082031 61.597656 104.472656 61.597656 104.734375 61.597656 Z M 38.898438 175.066406 C 39.878906 172.78125 41.769531 168.542969 43.53125 165.472656 C 45.292969 162.40625 46.859375 160.582031 47.640625 159.539062 C 48.488281 158.492188 48.554688 158.230469 48.359375 158.230469 C 48.230469 158.296875 47.835938 158.554688 46.921875 159.667969 C 46.007812 160.777344 44.507812 162.800781 43.207031 164.757812 C 41.964844 166.777344 40.921875 168.738281 40.203125 169.976562 C 39.484375 171.28125 39.160156 171.804688 38.898438 172.324219 C 38.765625 172.585938 38.636719 172.847656 38.507812 173.105469 C 38.507812 172.195312 38.507812 171.347656 38.570312 170.433594 C 38.570312 164.101562 38.636719 163.191406 41.3125 157.125 C 42.421875 154.445312 43.988281 151.707031 46.339844 147.921875 C 48.753906 144.074219 52.015625 139.179688 56.84375 133.890625 C 61.601562 128.609375 67.933594 122.996094 73.738281 118.691406 C 79.546875 114.449219 84.835938 111.515625 89.335938 109.097656 C 93.773438 106.683594 97.492188 104.792969 99.320312 104.011719 C 99.644531 103.878906 99.96875 103.746094 100.167969 103.683594 C 99.90625 104.011719 100.101562 103.8125 99.320312 104.59375 C 98.472656 105.3125 96.253906 107.535156 93.839844 109.949219 C 91.488281 112.296875 92.207031 111.316406 90.246094 113.664062 C 88.292969 116.015625 87.183594 117.515625 87.183594 117.84375 C 87.183594 118.167969 88.292969 117.320312 89.726562 115.882812 C 91.164062 114.382812 89.269531 116.277344 92.011719 113.339844 C 94.816406 110.46875 98.601562 106.816406 100.558594 104.59375 L 100.6875 104.398438 C 100.558594 104.726562 100.429688 105.25 100.167969 105.835938 C 99.320312 107.988281 97.691406 111.773438 94.164062 117.320312 C 90.640625 122.867188 85.289062 130.109375 79.941406 136.5 C 74.589844 142.898438 69.304688 148.378906 64.082031 153.402344 C 58.863281 158.359375 53.644531 162.800781 49.796875 166.847656 C 45.878906 170.890625 43.207031 174.542969 41.3125 178.71875 C 40.136719 181.328125 39.226562 184.070312 38.507812 187.203125 C 38.507812 185.703125 38.570312 183.9375 38.570312 182.046875 C 38.570312 180.089844 38.570312 178 38.507812 175.914062 Z M 35.898438 151.640625 C 35.503906 149.683594 34.589844 146.03125 34.007812 143.089844 C 33.351562 140.222656 33.023438 138.132812 32.699219 136.699219 C 32.441406 135.328125 32.175781 134.609375 32.046875 134.546875 C 31.851562 134.480469 31.785156 135.070312 32.046875 137.027344 C 32.375 138.980469 33.023438 142.308594 33.613281 145.3125 C 34.265625 148.3125 34.917969 150.921875 35.246094 152.617188 C 35.4375 153.402344 35.570312 153.992188 35.636719 154.445312 C 35.246094 157.058594 34.984375 159.472656 34.785156 161.558594 C 34.460938 165.144531 34.460938 167.757812 34.527344 170.109375 C 33.9375 168.082031 33.15625 166.0625 32.242188 163.714844 C 30.675781 159.734375 28.589844 154.644531 26.761719 149.355469 C 25 144.074219 23.4375 138.527344 22.585938 133.238281 C 21.671875 127.957031 21.476562 122.933594 21.671875 117.320312 C 21.933594 111.773438 22.519531 105.640625 23.238281 101.53125 C 23.761719 98.269531 24.285156 96.308594 24.671875 95.265625 C 24.738281 96.636719 24.867188 98.464844 25.066406 100.421875 C 25.328125 103.03125 25.78125 105.902344 26.238281 108.1875 C 26.699219 110.46875 27.152344 112.097656 27.480469 112.75 C 27.742188 113.40625 27.871094 113.078125 27.804688 112.035156 C 27.675781 110.988281 27.347656 109.230469 26.957031 107.203125 C 26.566406 105.183594 26.109375 102.898438 25.851562 100.550781 C 25.585938 98.398438 25.457031 96.113281 25.390625 94.613281 C 25.523438 94.808594 25.585938 95.136719 25.714844 95.527344 C 26.046875 96.375 26.5 97.417969 27.871094 99.507812 C 29.242188 101.660156 31.523438 104.859375 33.613281 108.25 C 35.703125 111.644531 37.527344 115.359375 38.703125 118.429688 C 44.183594 133.699219 41.835938 123.585938 37.332031 144.65625 C 36.808594 147.203125 36.351562 149.683594 36.027344 152.03125 C 35.960938 151.902344 35.960938 151.769531 35.898438 151.640625 Z M 32.304688 228.960938 C 31.132812 226.285156 28.71875 221.589844 27.152344 218.328125 C 25.523438 215.066406 24.671875 213.300781 24.21875 212.125 C 23.695312 211.019531 23.566406 210.496094 23.566406 210.691406 C 23.566406 210.886719 23.628906 211.867188 24.085938 213.234375 C 24.480469 214.671875 25.261719 216.496094 26.304688 218.78125 C 27.347656 221.066406 28.71875 223.738281 29.761719 225.828125 C 30.808594 227.851562 31.457031 229.289062 31.980469 230.394531 C 32.503906 231.570312 32.828125 232.417969 33.023438 233.203125 C 33.089844 233.398438 33.15625 233.59375 33.15625 233.726562 C 33.289062 236.59375 33.417969 239.269531 33.417969 240.707031 C 33.484375 242.925781 33.613281 242.660156 33.679688 243.511719 C 33.15625 241.617188 32.636719 239.792969 32.046875 238.097656 C 31.328125 235.878906 30.546875 233.988281 28.65625 231.046875 C 26.828125 228.113281 23.890625 224.132812 20.957031 219.5 C 18.019531 214.800781 15.015625 209.515625 12.800781 204.6875 C 10.515625 199.859375 8.949219 195.425781 8.101562 191.378906 C 7.1875 187.269531 6.925781 183.546875 7.125 179.046875 C 7.253906 174.542969 7.90625 169.324219 8.492188 165.667969 C 8.949219 163.125 9.339844 161.363281 9.667969 160.386719 C 9.734375 161.101562 9.863281 161.882812 9.925781 162.601562 C 10.121094 164.039062 10.253906 165.214844 10.386719 167.300781 C 10.582031 169.519531 10.777344 172.652344 10.96875 174.738281 C 11.300781 176.828125 11.625 177.871094 11.753906 177.871094 C 11.949219 177.871094 12.015625 176.761719 11.949219 175.714844 C 11.882812 174.738281 11.625 173.695312 11.429688 171.605469 C 11.167969 169.457031 10.90625 166.191406 10.777344 163.714844 C 10.644531 162.34375 10.582031 161.167969 10.582031 160.253906 C 10.710938 160.710938 10.839844 161.363281 11.035156 162.210938 C 11.558594 164.234375 12.472656 167.171875 14.167969 171.085938 C 15.800781 174.933594 18.277344 179.828125 20.691406 185.570312 C 23.105469 191.378906 25.390625 198.035156 27.21875 203.253906 C 28.980469 208.476562 30.414062 212.191406 31.199219 214.347656 C 33.089844 219.433594 33.222656 218.910156 33.15625 221.128906 C 33.023438 224.070312 33.089844 227.65625 33.089844 228.375 C 33.089844 229.222656 33.089844 230.070312 33.089844 230.917969 C 32.960938 230.460938 32.699219 229.808594 32.304688 228.960938 Z M 93.507812 153.664062 C 92.335938 155.164062 90.382812 157.449219 88.683594 159.402344 C 86.789062 161.558594 85.160156 163.382812 84.050781 164.691406 C 83.007812 165.996094 82.421875 166.777344 82.160156 166.976562 C 81.960938 167.105469 81.960938 166.710938 82.679688 165.667969 C 83.332031 164.625 84.703125 162.867188 86.335938 160.839844 C 87.964844 158.820312 89.988281 156.40625 91.292969 154.773438 C 91.949219 153.992188 92.402344 153.402344 92.859375 152.945312 C 91.949219 153.207031 90.445312 153.925781 88.683594 154.773438 C 86.53125 155.882812 84.050781 157.125 80.136719 159.601562 C 76.15625 162.148438 70.671875 165.929688 65.714844 170.039062 C 60.753906 174.152344 56.320312 178.652344 53.253906 182.375 C 50.183594 186.027344 48.554688 188.964844 46.792969 192.292969 C 45.03125 195.683594 43.140625 199.535156 41.835938 203.058594 C 40.53125 206.578125 39.8125 209.777344 39.09375 213.105469 C 38.441406 216.496094 37.789062 219.957031 37.332031 222.4375 C 36.351562 227.71875 36.15625 228.113281 36.484375 233.855469 C 36.550781 234.308594 36.550781 234.769531 36.617188 235.289062 C 36.617188 235.160156 36.617188 235.09375 36.679688 234.964844 C 36.875 234.179688 37.199219 233.074219 37.722656 231.441406 C 38.246094 229.808594 38.964844 227.65625 39.941406 225.371094 C 40.855469 223.085938 42.027344 220.675781 42.746094 219.371094 C 43.464844 218.0625 43.792969 217.933594 43.792969 218.0625 C 43.792969 218.261719 43.53125 218.847656 43.140625 219.628906 C 42.8125 220.476562 42.355469 221.523438 41.445312 223.871094 C 40.53125 226.21875 39.09375 229.941406 38.246094 233.464844 C 37.527344 236.335938 37.199219 239.074219 37.003906 241.164062 C 37.199219 243.121094 37.332031 244.945312 37.464844 246.511719 C 37.660156 248.273438 37.789062 249.710938 37.917969 250.886719 C 38.246094 249.1875 38.570312 247.425781 39.03125 245.730469 C 40.660156 239.46875 43.207031 233.203125 47.382812 226.613281 C 51.492188 220.023438 57.167969 213.039062 62.585938 207.101562 C 68.0625 201.167969 73.285156 196.207031 77.394531 191.636719 C 81.507812 187.070312 84.503906 182.765625 86.726562 178.523438 C 88.878906 174.285156 90.382812 170.039062 91.230469 166.128906 C 92.078125 162.210938 92.273438 158.6875 92.796875 156.339844 C 93.054688 155.097656 93.378906 154.25 93.507812 153.664062 Z M 96.707031 205.601562 C 95.011719 208.144531 91.617188 212.585938 89.335938 215.714844 C 87.054688 218.78125 85.875 220.605469 85.09375 221.71875 C 84.246094 222.828125 83.65625 223.15625 83.59375 222.957031 C 83.460938 222.761719 83.792969 221.980469 85.355469 219.628906 C 86.984375 217.214844 89.792969 213.234375 91.878906 210.234375 C 93.445312 207.886719 94.558594 206.191406 95.46875 204.949219 C 93.839844 206.125 91.292969 208.277344 88.226562 210.429688 C 84.703125 213.039062 80.460938 215.78125 76.089844 218.847656 C 71.71875 221.914062 67.148438 225.242188 63.039062 229.15625 C 58.863281 233.007812 55.210938 237.378906 52.46875 241.292969 C 49.664062 245.210938 47.707031 248.730469 46.007812 253.367188 C 44.3125 257.929688 42.746094 263.609375 41.898438 268.761719 C 41.117188 273.851562 40.921875 278.417969 40.921875 281.488281 C 40.792969 285.53125 39.941406 288.207031 40.460938 291.863281 C 40.660156 290.425781 40.921875 288.269531 41.445312 285.921875 C 41.898438 283.511719 42.550781 280.832031 43.792969 277.699219 C 44.964844 274.570312 46.792969 271.046875 47.90625 268.960938 C 49.078125 266.871094 49.664062 266.347656 49.988281 266.152344 C 50.316406 266.023438 50.382812 266.28125 49.859375 267.261719 C 49.273438 268.242188 48.097656 270.003906 46.921875 272.484375 C 45.75 275.027344 44.507812 278.289062 43.59375 282.527344 C 42.746094 286.707031 42.09375 291.796875 41.769531 294.796875 C 41.703125 295.578125 41.640625 296.167969 41.640625 296.691406 C 42.160156 298.777344 42.875 301.125 43.792969 303.539062 C 45.488281 308.042969 47.382812 312.089844 48.753906 315.480469 L 48.753906 315.546875 C 47.054688 308.957031 46.46875 304.976562 46.46875 301.125 C 46.402344 297.144531 46.988281 293.363281 48.359375 289.445312 C 49.730469 285.597656 51.882812 281.683594 55.539062 276.722656 C 59.1875 271.828125 64.410156 265.957031 69.566406 259.957031 C 74.71875 254.015625 79.8125 248.078125 83.921875 241.164062 C 88.097656 234.246094 91.292969 226.484375 93.445312 220.152344 C 95.597656 213.886719 96.707031 209.125 97.230469 206.515625 C 97.425781 205.472656 97.554688 204.753906 97.492188 204.363281 C 97.296875 204.6875 97.035156 205.144531 96.707031 205.601562 " fill-opacity="1" fill-rule="evenodd"/></g></g></g></g></g></svg>