<svg xmlns="http://www.w3.org/2000/svg" xmlns:xlink="http://www.w3.org/1999/xlink" width="1366" zoomAndPan="magnify" viewBox="0 0 1024.5 576" height="768" preserveAspectRatio="xMidYMid meet" version="1.0"><defs><filter x="0%" y="0%" width="100%" height="100%" id="ba5993dea0"><feColorMatrix values="0 0 0 0 1 0 0 0 0 1 0 0 0 0 1 0 0 0 1 0" color-interpolation-filters="sRGB"/></filter><mask id="2ffd75e541"><g filter="url(#ba5993dea0)"><rect x="-102.45" width="1229.4" fill="#000000" y="-57.6" height="691.2" fill-opacity="0.73"/></g></mask><clipPath id="71e2c8a2f1"><path d="M 0.367188 0.171875 L 115.808594 0.171875 L 115.808594 418 L 0.367188 418 Z M 0.367188 0.171875 " clip-rule="nonzero"/></clipPath><clipPath id="3b56b0667f"><rect x="0" width="116" y="0" height="419"/></clipPath><mask id="c10cd97da9"><g filter="url(#ba5993dea0)"><rect x="-102.45" width="1229.4" fill="#000000" y="-57.6" height="691.2" fill-opacity="0.73"/></g></mask><clipPath id="386bf17edd"><path d="M 0.1875 0.171875 L 115.445312 0.171875 L 115.445312 418 L 0.1875 418 Z M 0.1875 0.171875 " clip-rule="nonzero"/></clipPath><clipPath id="d4304398e2"><rect x="0" width="116" y="0" height="419"/></clipPath></defs><g mask="url(#2ffd75e541)"><g transform="matrix(1, 0, 0, 1, 908, 100)"><g clip-path="url(#3b56b0667f)"><g clip-path="url(#71e2c8a2f1)"><path fill="#93b67e" d="M 80.945312 288.027344 C 81.929688 286.203125 83.691406 283.527344 85.257812 281.242188 C 86.753906 278.957031 88.058594 276.9375 89.101562 275.5 C 90.085938 274 90.800781 273.085938 90.996094 273.023438 C 91.257812 272.957031 91.0625 273.738281 90.148438 275.371094 C 89.300781 276.9375 87.671875 279.417969 86.105469 281.832031 C 84.472656 284.246094 82.839844 286.660156 81.730469 288.421875 C 81.082031 289.460938 80.621094 290.3125 80.296875 290.898438 C 80.097656 291.941406 79.902344 292.921875 79.710938 293.902344 C 79.1875 296.183594 78.730469 298.339844 78.207031 300.230469 C 78.859375 299.183594 79.644531 298.144531 80.425781 297.097656 C 82.644531 294.421875 85.386719 291.746094 88.714844 288.355469 C 92.105469 284.960938 96.085938 280.851562 99.609375 275.957031 C 103.132812 271.066406 106.132812 265.390625 108.351562 260.363281 C 110.574219 255.335938 111.875 250.902344 112.988281 246.660156 C 114.09375 242.351562 114.941406 238.308594 115.464844 233.9375 C 115.921875 229.566406 115.984375 224.996094 115.789062 222.386719 C 115.660156 220.886719 115.464844 220.039062 115.203125 219.648438 C 115.136719 220.105469 115.074219 220.691406 115.007812 221.34375 C 114.683594 223.429688 114.160156 226.433594 113.570312 228.785156 C 113.050781 231.132812 112.527344 232.894531 112.074219 233.9375 C 111.679688 234.914062 111.289062 235.113281 111.222656 234.914062 C 111.15625 234.71875 111.421875 234.066406 111.746094 232.957031 C 112.074219 231.851562 112.398438 230.21875 112.855469 228.128906 C 113.3125 226.109375 113.898438 223.628906 114.160156 221.671875 C 114.289062 220.820312 114.355469 220.039062 114.417969 219.386719 C 114.03125 219.714844 113.703125 220.5625 112.988281 221.800781 C 112.203125 223.171875 111.027344 224.996094 108.675781 228.390625 C 106.328125 231.71875 102.808594 236.609375 99.414062 242.027344 C 96.085938 247.378906 92.890625 253.1875 90.214844 258.015625 C 79.1875 277.65625 83.558594 262.578125 81.601562 282.285156 C 81.339844 284.308594 81.082031 286.394531 80.75 288.484375 C 80.816406 288.355469 80.882812 288.226562 80.945312 288.027344 Z M 97.652344 301.144531 C 97.324219 301.859375 97 302.644531 96.609375 303.492188 C 95.496094 305.839844 93.929688 308.648438 92.824219 310.863281 C 91.714844 313.019531 91.128906 314.585938 90.996094 315.304688 C 90.800781 315.957031 91.0625 315.757812 91.847656 314.457031 C 92.628906 313.082031 93.867188 310.605469 95.109375 308.191406 C 96.410156 305.710938 97.71875 303.359375 98.5 301.792969 L 98.566406 301.601562 C 98.242188 302.511719 97.847656 303.6875 97.324219 305.1875 C 95.957031 309.039062 93.671875 314.910156 91.128906 320.328125 C 88.519531 325.679688 85.644531 330.570312 82.316406 335.074219 C 78.992188 339.640625 75.203125 343.816406 71.359375 347.597656 C 67.507812 351.449219 63.65625 354.90625 58.957031 360.128906 C 54.261719 365.347656 48.78125 372.265625 43.496094 379.507812 C 38.144531 386.816406 32.925781 394.386719 28.550781 400.582031 C 24.183594 406.714844 20.65625 411.414062 18.246094 414.15625 C 15.832031 416.894531 14.523438 417.742188 13.152344 417.808594 C 11.785156 417.875 10.347656 417.15625 9.371094 416.503906 C 8.324219 415.851562 7.804688 415.132812 8.457031 414.285156 C 9.109375 413.371094 11.003906 412.265625 15.503906 407.628906 C 19.941406 402.929688 27.050781 394.710938 32.011719 388.445312 C 36.902344 382.25 39.710938 378.074219 42.0625 373.503906 C 44.34375 369.003906 46.691406 363.652344 47.472656 359.152344 C 47.800781 357.320312 47.933594 355.625 47.867188 353.929688 C 47.933594 353.539062 48.0625 353.082031 48.128906 352.558594 C 48.191406 351.515625 48.257812 350.210938 48.191406 348.90625 C 48.191406 347.597656 48.128906 346.230469 47.933594 344.207031 C 47.800781 342.1875 47.539062 339.640625 47.277344 337.226562 C 47.085938 334.8125 46.824219 332.722656 46.171875 329.917969 C 45.519531 327.175781 44.410156 323.71875 43.628906 321.699219 C 42.910156 319.609375 42.582031 318.890625 42.449219 318.890625 C 42.320312 318.890625 42.449219 319.609375 42.777344 320.980469 C 43.167969 322.417969 43.691406 324.371094 44.34375 326.980469 C 44.929688 329.527344 45.582031 332.59375 45.976562 336.3125 C 46.367188 339.769531 46.5625 343.816406 46.757812 347.015625 C 46.625 346.6875 46.5625 346.363281 46.496094 346.101562 C 45.191406 341.273438 42.449219 335.789062 39.515625 330.308594 C 36.515625 324.761719 32.859375 319.21875 29.269531 312.757812 C 25.617188 306.363281 21.960938 299.054688 19.09375 289.984375 C 16.285156 280.851562 14.265625 269.953125 12.957031 262.515625 C 11.585938 255.140625 10.9375 251.359375 10.480469 249.207031 L 10.414062 248.875 C 11.003906 250.378906 11.785156 252.210938 12.632812 253.90625 C 13.9375 256.710938 15.242188 259.1875 16.222656 261.601562 C 17.265625 263.953125 18.046875 266.300781 18.441406 267.539062 C 18.828125 268.78125 18.894531 268.84375 19.027344 268.324219 C 19.09375 267.804688 19.09375 266.691406 18.246094 264.082031 C 17.394531 261.539062 15.632812 257.554688 14.265625 254.296875 C 13.546875 252.597656 12.894531 251.097656 12.304688 249.859375 C 13.480469 251.492188 15.179688 253.769531 17.851562 256.578125 C 21.898438 261.015625 28.097656 266.691406 32.992188 272.304688 C 37.820312 277.914062 41.40625 283.398438 44.082031 289.203125 C 46.757812 295.011719 48.519531 301.210938 49.628906 307.863281 C 50.800781 314.519531 51.261719 321.761719 51.261719 327.765625 C 51.261719 333.765625 50.800781 338.59375 50.347656 342.640625 C 49.953125 346.6875 49.628906 350.078125 49.628906 352.558594 C 49.628906 355.042969 49.953125 356.738281 50.738281 357.257812 C 51.453125 357.78125 52.632812 357.125 54.0625 354.710938 C 55.433594 352.234375 57.066406 348.058594 59.480469 340.945312 C 61.046875 336.3125 62.875 330.503906 64.570312 325.027344 C 64.699219 324.5 64.964844 323.847656 65.351562 322.871094 C 66.070312 321.109375 67.113281 318.5 68.484375 315.304688 C 69.855469 312.171875 71.488281 308.519531 73.25 303.882812 C 75.011719 299.25 76.835938 293.640625 77.882812 289.460938 C 78.53125 287.046875 78.859375 285.15625 79.054688 283.65625 C 79.316406 282.417969 79.449219 280.917969 79.578125 278.238281 C 79.710938 274.914062 79.773438 269.695312 79.515625 263.953125 C 79.25 259.449219 78.796875 255.796875 79.121094 251.226562 C 79.25 248.683594 79.710938 245.03125 80.035156 240.398438 C 80.425781 235.699219 80.6875 229.957031 80.816406 226.304688 C 81.011719 221.671875 80.6875 217.625 80.425781 212.925781 C 79.902344 205.421875 78.859375 197.855469 78.53125 190.480469 C 78.402344 188.71875 78.402344 186.5 78.402344 183.761719 C 78.46875 181.019531 78.53125 177.820312 78.46875 173.125 C 78.335938 166.863281 78.402344 159.359375 77.683594 153.222656 C 77.101562 148.070312 75.664062 141.609375 74.292969 136.390625 C 72.925781 131.167969 71.617188 127.1875 70.375 123.601562 C 69.464844 120.792969 68.484375 118.054688 67.570312 115.25 C 66.53125 111.988281 65.417969 108.789062 64.441406 105.464844 C 63.332031 101.871094 62.21875 97.828125 60.917969 94.238281 C 60.328125 92.542969 59.351562 90.0625 57.71875 86.40625 C 56.152344 82.820312 53.933594 78.054688 51.453125 73.492188 C 48.976562 68.921875 46.238281 64.617188 42.714844 59.984375 C 39.1875 55.285156 34.949219 50.328125 30.3125 45.628906 C 25.617188 40.867188 20.65625 36.363281 16.679688 32.1875 C 12.828125 28.078125 9.957031 24.292969 7.871094 20.640625 C 5.78125 16.984375 4.414062 13.460938 3.429688 10.394531 C 2.453125 7.324219 1.863281 4.78125 1.214844 3.148438 C 0.886719 2.300781 0.5625 1.71875 0.367188 1.257812 C 1.28125 2.042969 2.386719 2.890625 3.496094 3.867188 C 5.0625 5.109375 6.5625 6.542969 7.804688 7.71875 C 8.976562 8.890625 9.890625 9.9375 10.542969 10.457031 C 11.261719 11.046875 11.71875 11.113281 11.652344 10.851562 C 11.585938 10.589844 11.003906 10.003906 9.761719 8.699219 C 8.457031 7.394531 6.5625 5.367188 4.933594 3.867188 C 3.300781 2.300781 1.933594 1.195312 0.820312 0.28125 C 1.539062 0.28125 2.847656 0.605469 4.996094 1.324219 C 8.066406 2.367188 12.894531 4.195312 17.460938 7 C 21.960938 9.875 26.203125 13.65625 29.402344 17.441406 C 32.597656 21.222656 34.816406 25.074219 37.101562 30.75 C 39.382812 36.429688 41.734375 43.929688 43.886719 50.328125 C 44.667969 52.804688 45.519531 55.089844 46.238281 57.179688 C 44.863281 54.566406 43.167969 51.5 41.734375 49.152344 C 39.777344 46.019531 38.40625 44.386719 37.296875 43.019531 C 36.121094 41.648438 35.207031 40.605469 34.882812 40.410156 C 34.625 40.148438 34.949219 40.667969 35.859375 41.976562 C 36.839844 43.28125 38.339844 45.367188 39.90625 47.976562 C 41.539062 50.585938 43.105469 53.71875 44.605469 56.460938 C 46.042969 59.007812 47.410156 61.222656 48.257812 62.59375 C 48.78125 63.835938 49.238281 65.007812 49.695312 66.117188 C 51.453125 70.359375 53.019531 73.621094 54.261719 76.359375 C 55.5 79.164062 56.414062 81.449219 57.261719 83.601562 C 58.109375 85.757812 58.957031 87.777344 59.675781 89.347656 C 60.394531 90.847656 61.046875 92.214844 61.699219 93.847656 C 62.9375 96.847656 64.441406 100.699219 65.484375 103.703125 C 67.378906 108.789062 67.507812 110.488281 68.746094 115.121094 C 69.136719 116.617188 69.726562 118.578125 70.3125 120.339844 C 71.421875 123.601562 72.660156 126.46875 73.835938 130.125 C 75.011719 133.777344 76.578125 139.261719 77.75 144.808594 C 78.925781 150.355469 79.839844 155.898438 80.230469 161.054688 C 80.882812 169.144531 79.773438 177.105469 79.773438 185.195312 C 79.839844 188.390625 79.96875 191.523438 80.164062 194.65625 C 80.363281 197.726562 80.492188 201.050781 80.6875 204.183594 C 80.945312 209.015625 81.46875 214.296875 81.664062 218.472656 C 81.929688 222.582031 82.058594 226.175781 81.992188 230.738281 C 81.863281 235.308594 81.601562 240.070312 81.40625 243.332031 C 81.210938 246.597656 80.75 249.925781 80.558594 253.1875 C 80.425781 256.121094 80.558594 259.582031 80.621094 262.253906 C 80.816406 268.0625 81.339844 272.957031 80.816406 278.957031 C 80.425781 283.003906 79.644531 287.832031 78.796875 291.941406 C 77.949219 296.050781 77.164062 299.578125 76.511719 301.859375 C 75.269531 306.363281 72.988281 310.796875 71.292969 315.238281 C 70.050781 318.4375 68.945312 321.433594 68.03125 324.046875 C 66.070312 330.050781 66.984375 330.570312 63.851562 336.835938 C 62.808594 338.921875 62.21875 340.488281 61.113281 343.421875 C 60.003906 346.363281 58.894531 349.816406 58.042969 352.167969 C 57.261719 354.582031 56.742188 355.953125 56.542969 356.671875 C 56.347656 357.453125 56.480469 357.652344 56.613281 357.78125 C 56.742188 357.910156 56.808594 357.910156 57.003906 357.78125 C 57.195312 357.652344 57.523438 357.257812 57.785156 356.800781 C 57.851562 356.671875 57.851562 356.472656 57.914062 356.34375 C 57.980469 356.34375 57.980469 356.277344 57.980469 356.277344 C 58.503906 355.953125 59.609375 354.710938 61.308594 353.148438 C 63.003906 351.578125 65.351562 349.6875 67.113281 348.121094 C 68.878906 346.558594 70.050781 345.316406 71.09375 344.140625 C 72.140625 342.96875 73.054688 341.726562 72.53125 342.121094 C 72.007812 342.445312 70.117188 344.40625 67.507812 346.816406 C 64.898438 349.167969 61.570312 352.039062 59.941406 353.410156 C 59.15625 353.992188 58.761719 354.324219 58.503906 354.453125 C 58.828125 353.472656 59.546875 352.101562 60.328125 349.816406 C 61.113281 347.535156 62.289062 344.269531 63.722656 341.007812 C 65.15625 337.746094 67.050781 333.765625 68.09375 332.136719 C 69.203125 330.503906 69.203125 330.308594 69.726562 329.65625 C 71.03125 328.222656 72.855469 326.066406 75.335938 323.394531 C 78.53125 319.867188 82.90625 315.5625 86.429688 312.234375 C 90.015625 308.972656 92.824219 306.753906 94.78125 304.667969 C 96.019531 303.359375 96.933594 302.1875 97.652344 301.144531 Z M 60.917969 42.5625 C 61.4375 43.671875 62.417969 45.5625 63.066406 47.523438 C 63.722656 49.414062 64.050781 51.304688 64.308594 52.933594 C 64.570312 54.503906 64.769531 55.742188 64.898438 56.589844 C 65.09375 57.503906 65.289062 57.894531 65.484375 57.960938 C 65.617188 58.027344 65.679688 57.699219 65.550781 56.527344 C 65.417969 55.347656 65.09375 53.394531 64.632812 51.367188 C 64.179688 49.347656 63.589844 47.257812 63.066406 45.691406 C 62.679688 44.648438 62.289062 43.800781 62.023438 43.214844 C 62.613281 43.867188 63.527344 44.84375 64.699219 46.476562 C 66.265625 48.628906 68.355469 51.890625 70.117188 56.066406 C 71.878906 60.242188 73.378906 65.464844 73.96875 70.09375 C 74.554688 74.730469 74.292969 78.839844 73.773438 82.753906 C 73.3125 86.605469 72.660156 90.195312 71.941406 93.261719 C 71.222656 96.261719 70.445312 98.738281 69.726562 101.152344 C 69.007812 103.570312 68.421875 105.917969 68.160156 107.613281 C 68.09375 107.746094 68.09375 107.878906 68.09375 108.074219 C 68.03125 107.8125 67.960938 107.613281 67.898438 107.417969 C 67.765625 107.160156 67.703125 106.832031 67.570312 106.570312 C 67.570312 106.113281 67.570312 105.59375 67.507812 105.003906 C 67.507812 103.570312 67.507812 101.871094 67.636719 99.523438 C 67.703125 97.175781 67.960938 94.109375 68.03125 92.019531 C 68.160156 89.933594 68.226562 88.824219 68.160156 88.367188 C 68.03125 87.910156 67.832031 88.171875 67.636719 89.019531 C 67.441406 89.933594 67.378906 91.566406 67.179688 94.367188 C 67.050781 97.175781 66.917969 101.089844 66.984375 103.703125 C 66.984375 104.222656 67.050781 104.679688 67.050781 105.070312 C 63.003906 93.519531 60.980469 81.1875 60.457031 68.921875 C 60.265625 64.160156 60.65625 59.394531 60.980469 55.679688 C 61.308594 51.957031 61.570312 49.347656 61.503906 47.257812 C 61.4375 45.171875 61.113281 43.605469 60.917969 42.824219 C 60.917969 42.691406 60.851562 42.5625 60.851562 42.496094 Z M 11.261719 61.613281 C 13.089844 62.269531 16.222656 63.441406 19.027344 64.746094 C 21.832031 65.984375 24.3125 67.355469 25.683594 68.203125 C 27.050781 68.988281 27.316406 69.378906 26.921875 69.3125 C 26.53125 69.246094 25.355469 68.792969 23.722656 67.945312 C 22.09375 67.160156 19.941406 66.050781 17.917969 65.070312 C 15.832031 64.09375 13.871094 63.3125 12.503906 62.851562 C 11.523438 62.460938 10.871094 62.269531 10.347656 62.136719 C 10.347656 62.460938 10.804688 63.050781 11.652344 63.898438 C 12.570312 64.746094 13.871094 65.855469 17.003906 68.664062 C 20.070312 71.464844 24.902344 75.902344 30.511719 79.816406 C 36.121094 83.667969 42.515625 86.929688 47.148438 89.734375 C 51.71875 92.476562 54.523438 94.761719 56.675781 96.976562 C 58.828125 99.132812 60.328125 101.152344 61.960938 103.960938 C 62.875 105.464844 63.785156 107.222656 64.699219 109.050781 C 64.375 108.007812 63.851562 106.046875 63.203125 104.027344 C 63.066406 103.765625 62.9375 103.4375 62.742188 103.179688 C 62.023438 101.871094 60.980469 100.109375 59.417969 98.089844 C 57.851562 96.066406 55.695312 93.714844 53.804688 91.890625 C 51.914062 90.0625 50.28125 88.628906 49.304688 87.714844 C 48.386719 86.800781 48.191406 86.40625 48.457031 86.539062 C 48.78125 86.605469 49.628906 87.253906 51 88.433594 C 52.367188 89.605469 54.199219 91.300781 56.285156 93.585938 C 58.308594 95.9375 60.589844 98.808594 61.960938 100.699219 C 62.023438 100.894531 62.15625 101.023438 62.289062 101.152344 C 62.089844 100.699219 61.894531 100.175781 61.699219 99.722656 C 61.242188 98.738281 60.980469 97.828125 60.457031 97.5 C 59.941406 97.109375 58.894531 95.871094 57.589844 93.914062 C 56.347656 91.890625 54.71875 89.019531 52.5 85.757812 C 50.347656 82.496094 47.671875 78.839844 44.082031 75.511719 C 40.558594 72.121094 36.121094 68.988281 31.683594 66.832031 C 27.316406 64.617188 22.941406 63.3125 19.546875 62.59375 C 16.15625 61.875 13.871094 61.679688 12.371094 61.613281 C 11.914062 61.613281 11.523438 61.613281 11.261719 61.613281 Z M 77.101562 175.082031 C 76.117188 172.796875 74.226562 168.558594 72.464844 165.488281 C 70.703125 162.425781 69.136719 160.597656 68.355469 159.554688 C 67.507812 158.511719 67.441406 158.246094 67.636719 158.246094 C 67.765625 158.3125 68.160156 158.574219 69.074219 159.683594 C 69.988281 160.792969 71.488281 162.816406 72.789062 164.773438 C 74.03125 166.796875 75.074219 168.753906 75.792969 169.996094 C 76.511719 171.296875 76.835938 171.820312 77.101562 172.34375 C 77.230469 172.601562 77.359375 172.863281 77.488281 173.125 C 77.488281 172.210938 77.488281 171.363281 77.425781 170.449219 C 77.425781 164.121094 77.359375 163.207031 74.683594 157.140625 C 73.574219 154.464844 72.007812 151.722656 69.660156 147.941406 C 67.246094 144.089844 63.984375 139.195312 59.15625 133.910156 C 54.394531 128.625 48.0625 123.011719 42.257812 118.707031 C 36.449219 114.46875 31.160156 111.53125 26.660156 109.113281 C 22.222656 106.699219 18.503906 104.808594 16.679688 104.027344 C 16.351562 103.898438 16.027344 103.765625 15.832031 103.703125 C 16.089844 104.027344 15.898438 103.832031 16.679688 104.613281 C 17.527344 105.332031 19.742188 107.550781 22.15625 109.964844 C 24.507812 112.3125 23.789062 111.335938 25.75 113.683594 C 27.703125 116.035156 28.8125 117.53125 28.8125 117.859375 C 28.8125 118.183594 27.703125 117.335938 26.269531 115.902344 C 24.835938 114.402344 26.726562 116.292969 23.988281 113.355469 C 21.179688 110.488281 17.394531 106.832031 15.4375 104.613281 L 15.308594 104.414062 C 15.4375 104.746094 15.566406 105.265625 15.832031 105.851562 C 16.679688 108.007812 18.308594 111.789062 21.832031 117.335938 C 25.355469 122.882812 30.707031 130.125 36.054688 136.519531 C 41.40625 142.917969 46.691406 148.394531 51.914062 153.417969 C 57.132812 158.378906 62.355469 162.816406 66.199219 166.863281 C 70.117188 170.90625 72.789062 174.558594 74.683594 178.734375 C 75.859375 181.347656 76.769531 184.085938 77.488281 187.21875 C 77.488281 185.71875 77.425781 183.957031 77.425781 182.066406 C 77.425781 180.105469 77.425781 178.019531 77.488281 175.929688 Z M 80.097656 151.65625 C 80.492188 149.699219 81.40625 146.046875 81.992188 143.109375 C 82.644531 140.238281 82.972656 138.152344 83.296875 136.714844 C 83.558594 135.34375 83.820312 134.625 83.949219 134.5625 C 84.144531 134.496094 84.210938 135.085938 83.949219 137.042969 C 83.625 139 82.972656 142.328125 82.382812 145.332031 C 81.730469 148.328125 81.082031 150.9375 80.75 152.636719 C 80.558594 153.417969 80.425781 154.007812 80.363281 154.464844 C 80.75 157.074219 81.011719 159.488281 81.210938 161.574219 C 81.535156 165.164062 81.535156 167.773438 81.46875 170.125 C 82.058594 168.097656 82.839844 166.078125 83.753906 163.730469 C 85.320312 159.75 87.40625 154.660156 89.238281 149.375 C 90.996094 144.089844 92.5625 138.542969 93.414062 133.257812 C 94.324219 127.972656 94.519531 122.949219 94.324219 117.335938 C 94.0625 111.789062 93.476562 105.65625 92.757812 101.546875 C 92.234375 98.285156 91.714844 96.328125 91.324219 95.28125 C 91.257812 96.652344 91.128906 98.480469 90.933594 100.441406 C 90.667969 103.050781 90.214844 105.917969 89.757812 108.203125 C 89.300781 110.488281 88.84375 112.117188 88.519531 112.769531 C 88.253906 113.421875 88.125 113.09375 88.191406 112.054688 C 88.320312 111.007812 88.648438 109.246094 89.039062 107.222656 C 89.429688 105.199219 89.886719 102.917969 90.148438 100.570312 C 90.410156 98.414062 90.539062 96.128906 90.605469 94.628906 C 90.472656 94.828125 90.410156 95.152344 90.28125 95.546875 C 89.949219 96.394531 89.496094 97.4375 88.125 99.523438 C 86.753906 101.675781 84.472656 104.875 82.382812 108.265625 C 80.296875 111.660156 78.46875 115.378906 77.292969 118.449219 C 71.8125 133.714844 74.160156 123.601562 78.667969 144.675781 C 79.1875 147.222656 79.644531 149.699219 79.96875 152.050781 C 80.035156 151.921875 80.035156 151.785156 80.097656 151.65625 Z M 83.691406 228.976562 C 84.863281 226.304688 87.277344 221.605469 88.84375 218.34375 C 90.472656 215.082031 91.324219 213.320312 91.78125 212.140625 C 92.300781 211.035156 92.429688 210.511719 92.429688 210.710938 C 92.429688 210.90625 92.367188 211.882812 91.910156 213.253906 C 91.515625 214.691406 90.734375 216.515625 89.691406 218.800781 C 88.648438 221.082031 87.277344 223.757812 86.234375 225.84375 C 85.191406 227.871094 84.539062 229.304688 84.015625 230.414062 C 83.492188 231.585938 83.167969 232.433594 82.972656 233.21875 C 82.90625 233.414062 82.839844 233.613281 82.839844 233.742188 C 82.710938 236.609375 82.578125 239.289062 82.578125 240.722656 C 82.511719 242.941406 82.382812 242.679688 82.316406 243.527344 C 82.839844 241.636719 83.359375 239.808594 83.949219 238.113281 C 84.667969 235.898438 85.449219 234.003906 87.339844 231.066406 C 89.167969 228.128906 92.105469 224.148438 95.042969 219.515625 C 97.976562 214.820312 100.980469 209.53125 103.199219 204.703125 C 105.480469 199.875 107.046875 195.441406 107.894531 191.394531 C 108.8125 187.285156 109.070312 183.5625 108.875 179.0625 C 108.742188 174.558594 108.09375 169.339844 107.503906 165.6875 C 107.046875 163.140625 106.65625 161.378906 106.328125 160.402344 C 106.261719 161.121094 106.132812 161.902344 106.070312 162.621094 C 105.875 164.054688 105.742188 165.230469 105.613281 167.316406 C 105.414062 169.535156 105.21875 172.667969 105.027344 174.757812 C 104.699219 176.84375 104.371094 177.886719 104.242188 177.886719 C 104.046875 177.886719 103.984375 176.777344 104.046875 175.734375 C 104.113281 174.757812 104.371094 173.710938 104.566406 171.625 C 104.832031 169.472656 105.089844 166.207031 105.21875 163.730469 C 105.351562 162.359375 105.414062 161.183594 105.414062 160.273438 C 105.285156 160.726562 105.15625 161.378906 104.960938 162.226562 C 104.4375 164.253906 103.523438 167.1875 101.828125 171.101562 C 100.195312 174.953125 97.71875 179.847656 95.304688 185.589844 C 92.890625 191.394531 90.605469 198.050781 88.777344 203.273438 C 87.015625 208.492188 85.582031 212.210938 84.796875 214.363281 C 82.90625 219.449219 82.777344 218.929688 82.839844 221.144531 C 82.972656 224.085938 82.90625 227.671875 82.90625 228.390625 C 82.90625 229.238281 82.90625 230.085938 82.90625 230.933594 C 83.035156 230.480469 83.296875 229.824219 83.691406 228.976562 Z M 22.488281 153.683594 C 23.660156 155.183594 25.617188 157.464844 27.316406 159.421875 C 29.207031 161.574219 30.835938 163.402344 31.945312 164.707031 C 32.992188 166.011719 33.574219 166.796875 33.839844 166.992188 C 34.035156 167.121094 34.035156 166.730469 33.316406 165.6875 C 32.664062 164.640625 31.296875 162.882812 29.664062 160.859375 C 28.035156 158.835938 26.007812 156.421875 24.703125 154.789062 C 24.050781 154.007812 23.59375 153.417969 23.140625 152.964844 C 24.050781 153.222656 25.550781 153.941406 27.316406 154.789062 C 29.464844 155.898438 31.945312 157.140625 35.859375 159.617188 C 39.839844 162.164062 45.324219 165.949219 50.28125 170.058594 C 55.242188 174.167969 59.675781 178.667969 62.742188 182.390625 C 65.8125 186.042969 67.441406 188.980469 69.203125 192.308594 C 70.964844 195.699219 72.855469 199.550781 74.160156 203.074219 C 75.46875 206.597656 76.1875 209.796875 76.902344 213.125 C 77.554688 216.515625 78.207031 219.972656 78.667969 222.453125 C 79.644531 227.738281 79.839844 228.128906 79.515625 233.871094 C 79.449219 234.328125 79.449219 234.785156 79.378906 235.308594 C 79.378906 235.179688 79.378906 235.113281 79.316406 234.980469 C 79.121094 234.195312 78.796875 233.089844 78.273438 231.457031 C 77.75 229.824219 77.035156 227.671875 76.054688 225.390625 C 75.140625 223.105469 73.96875 220.691406 73.25 219.386719 C 72.53125 218.082031 72.207031 217.953125 72.207031 218.082031 C 72.207031 218.277344 72.464844 218.867188 72.855469 219.648438 C 73.183594 220.496094 73.640625 221.539062 74.554688 223.890625 C 75.46875 226.238281 76.902344 229.957031 77.75 233.484375 C 78.46875 236.351562 78.796875 239.089844 78.992188 241.179688 C 78.796875 243.136719 78.667969 244.964844 78.53125 246.53125 C 78.335938 248.292969 78.207031 249.726562 78.078125 250.902344 C 77.75 249.207031 77.425781 247.445312 76.96875 245.75 C 75.335938 239.484375 72.789062 233.21875 68.613281 226.628906 C 64.503906 220.039062 58.828125 213.058594 53.414062 207.117188 C 47.933594 201.183594 42.714844 196.222656 38.601562 191.652344 C 34.488281 187.089844 31.492188 182.78125 29.269531 178.539062 C 27.117188 174.300781 25.617188 170.058594 24.769531 166.144531 C 23.921875 162.226562 23.722656 158.703125 23.203125 156.355469 C 22.941406 155.117188 22.617188 154.269531 22.488281 153.683594 Z M 19.289062 205.617188 C 20.984375 208.164062 24.378906 212.601562 26.660156 215.734375 C 28.945312 218.800781 30.121094 220.625 30.902344 221.734375 C 31.75 222.847656 32.339844 223.171875 32.402344 222.976562 C 32.535156 222.777344 32.207031 221.996094 30.640625 219.648438 C 29.011719 217.234375 26.203125 213.253906 24.117188 210.25 C 22.550781 207.902344 21.4375 206.207031 20.527344 204.96875 C 22.15625 206.140625 24.703125 208.296875 27.769531 210.445312 C 31.296875 213.058594 35.535156 215.796875 39.90625 218.867188 C 44.277344 221.929688 48.847656 225.257812 52.957031 229.171875 C 57.132812 233.023438 60.789062 237.394531 63.527344 241.308594 C 66.332031 245.226562 68.289062 248.746094 69.988281 253.382812 C 71.683594 257.949219 73.25 263.628906 74.097656 268.78125 C 74.878906 273.867188 75.074219 278.4375 75.074219 281.503906 C 75.203125 285.546875 76.054688 288.226562 75.535156 291.878906 C 75.335938 290.441406 75.074219 288.289062 74.554688 285.941406 C 74.097656 283.527344 73.445312 280.851562 72.207031 277.71875 C 71.03125 274.585938 69.203125 271.066406 68.09375 268.976562 C 66.917969 266.890625 66.332031 266.367188 66.007812 266.171875 C 65.679688 266.039062 65.617188 266.300781 66.136719 267.277344 C 66.722656 268.257812 67.898438 270.019531 69.074219 272.5 C 70.246094 275.046875 71.488281 278.308594 72.402344 282.546875 C 73.25 286.726562 73.902344 291.8125 74.226562 294.816406 C 74.292969 295.597656 74.355469 296.183594 74.355469 296.707031 C 73.835938 298.796875 73.121094 301.144531 72.207031 303.554688 C 70.511719 308.058594 68.613281 312.105469 67.246094 315.496094 L 67.246094 315.5625 C 68.945312 308.972656 69.527344 304.992188 69.527344 301.144531 C 69.59375 297.164062 69.007812 293.378906 67.636719 289.460938 C 66.265625 285.613281 64.113281 281.703125 60.457031 276.742188 C 56.808594 271.847656 51.585938 265.972656 46.429688 259.972656 C 41.277344 254.035156 36.1875 248.09375 32.074219 241.179688 C 27.898438 234.265625 24.703125 226.5 22.550781 220.167969 C 20.398438 213.90625 19.289062 209.144531 18.765625 206.535156 C 18.570312 205.488281 18.441406 204.769531 18.503906 204.378906 C 18.699219 204.703125 18.960938 205.164062 19.289062 205.617188 " fill-opacity="1" fill-rule="evenodd"/></g></g></g></g><g mask="url(#c10cd97da9)"><g transform="matrix(1, 0, 0, 1, 0, 100)"><g clip-path="url(#d4304398e2)"><g clip-path="url(#386bf17edd)"><path fill="#93b67e" d="M 35.050781 288.027344 C 34.070312 286.203125 32.304688 283.527344 30.742188 281.242188 C 29.242188 278.957031 27.9375 276.9375 26.894531 275.5 C 25.914062 274 25.195312 273.085938 25 273.023438 C 24.738281 272.957031 24.933594 273.738281 25.851562 275.371094 C 26.699219 276.9375 28.328125 279.417969 29.894531 281.832031 C 31.523438 284.246094 33.15625 286.660156 34.265625 288.421875 C 34.917969 289.460938 35.375 290.3125 35.703125 290.898438 C 35.898438 291.941406 36.09375 292.921875 36.285156 293.902344 C 36.808594 296.183594 37.269531 298.339844 37.789062 300.230469 C 37.136719 299.183594 36.351562 298.144531 35.570312 297.097656 C 33.351562 294.421875 30.609375 291.746094 27.28125 288.355469 C 23.890625 284.960938 19.910156 280.851562 16.386719 275.957031 C 12.867188 271.066406 9.863281 265.390625 7.644531 260.363281 C 5.425781 255.335938 4.121094 250.902344 3.011719 246.660156 C 1.902344 242.351562 1.054688 238.308594 0.53125 233.9375 C 0.0742188 229.566406 0.0117188 224.996094 0.207031 222.386719 C 0.335938 220.886719 0.53125 220.039062 0.792969 219.648438 C 0.859375 220.105469 0.921875 220.691406 0.988281 221.34375 C 1.3125 223.429688 1.835938 226.433594 2.425781 228.785156 C 2.945312 231.132812 3.46875 232.894531 3.925781 233.9375 C 4.316406 234.914062 4.710938 235.113281 4.773438 234.914062 C 4.839844 234.71875 4.574219 234.066406 4.25 232.957031 C 3.925781 231.851562 3.597656 230.21875 3.144531 228.128906 C 2.683594 226.109375 2.097656 223.628906 1.835938 221.671875 C 1.707031 220.820312 1.640625 220.039062 1.578125 219.386719 C 1.964844 219.714844 2.292969 220.5625 3.011719 221.800781 C 3.792969 223.171875 4.96875 224.996094 7.320312 228.390625 C 9.667969 231.71875 13.1875 236.609375 16.582031 242.027344 C 19.910156 247.378906 23.105469 253.1875 25.78125 258.015625 C 36.808594 277.65625 32.441406 262.578125 34.394531 282.285156 C 34.65625 284.308594 34.917969 286.394531 35.246094 288.484375 C 35.179688 288.355469 35.113281 288.226562 35.050781 288.027344 Z M 18.34375 301.144531 C 18.671875 301.859375 18.996094 302.644531 19.390625 303.492188 C 20.5 305.839844 22.066406 308.648438 23.171875 310.863281 C 24.285156 313.019531 24.867188 314.585938 25 315.304688 C 25.195312 315.957031 24.933594 315.757812 24.148438 314.457031 C 23.367188 313.082031 22.128906 310.605469 20.886719 308.191406 C 19.585938 305.710938 18.277344 303.359375 17.496094 301.792969 L 17.429688 301.601562 C 17.757812 302.511719 18.148438 303.6875 18.671875 305.1875 C 20.039062 309.039062 22.324219 314.910156 24.867188 320.328125 C 27.480469 325.679688 30.351562 330.570312 33.679688 335.074219 C 37.003906 339.640625 40.792969 343.816406 44.640625 347.597656 C 48.488281 351.449219 52.339844 354.90625 57.039062 360.128906 C 61.734375 365.347656 67.214844 372.265625 72.503906 379.507812 C 77.851562 386.816406 83.074219 394.386719 87.445312 400.582031 C 91.8125 406.714844 95.339844 411.414062 97.753906 414.15625 C 100.167969 416.894531 101.472656 417.742188 102.84375 417.808594 C 104.214844 417.875 105.648438 417.15625 106.628906 416.503906 C 107.671875 415.851562 108.191406 415.132812 107.542969 414.285156 C 106.886719 413.371094 104.996094 412.265625 100.492188 407.628906 C 96.058594 402.929688 88.945312 394.710938 83.984375 388.445312 C 79.09375 382.25 76.285156 378.074219 73.933594 373.503906 C 71.65625 369.003906 69.304688 363.652344 68.523438 359.152344 C 68.195312 357.320312 68.0625 355.625 68.128906 353.929688 C 68.0625 353.539062 67.933594 353.082031 67.867188 352.558594 C 67.804688 351.515625 67.738281 350.210938 67.804688 348.90625 C 67.804688 347.597656 67.867188 346.230469 68.0625 344.207031 C 68.195312 342.1875 68.457031 339.640625 68.71875 337.226562 C 68.910156 334.8125 69.175781 332.722656 69.824219 329.917969 C 70.476562 327.175781 71.589844 323.71875 72.371094 321.699219 C 73.085938 319.609375 73.414062 318.890625 73.546875 318.890625 C 73.675781 318.890625 73.546875 319.609375 73.222656 320.980469 C 72.828125 322.417969 72.304688 324.371094 71.65625 326.980469 C 71.066406 329.527344 70.414062 332.59375 70.023438 336.3125 C 69.628906 339.769531 69.433594 343.816406 69.238281 347.015625 C 69.371094 346.6875 69.433594 346.363281 69.5 346.101562 C 70.808594 341.273438 73.546875 335.789062 76.484375 330.308594 C 79.480469 324.761719 83.136719 319.21875 86.726562 312.757812 C 90.382812 306.363281 94.035156 299.054688 96.90625 289.984375 C 99.710938 280.851562 101.734375 269.953125 103.039062 262.515625 C 104.410156 255.140625 105.0625 251.359375 105.515625 249.207031 L 105.582031 248.875 C 104.996094 250.378906 104.214844 252.210938 103.367188 253.90625 C 102.058594 256.710938 100.753906 259.1875 99.773438 261.601562 C 98.730469 263.953125 97.949219 266.300781 97.554688 267.539062 C 97.167969 268.78125 97.101562 268.84375 96.972656 268.324219 C 96.90625 267.804688 96.90625 266.691406 97.753906 264.082031 C 98.601562 261.539062 100.363281 257.554688 101.734375 254.296875 C 102.449219 252.597656 103.101562 251.097656 103.691406 249.859375 C 102.515625 251.492188 100.816406 253.769531 98.144531 256.578125 C 94.097656 261.015625 87.902344 266.691406 83.007812 272.304688 C 78.179688 277.914062 74.589844 283.398438 71.914062 289.203125 C 69.238281 295.011719 67.480469 301.210938 66.367188 307.863281 C 65.195312 314.519531 64.734375 321.761719 64.734375 327.765625 C 64.734375 333.765625 65.195312 338.59375 65.648438 342.640625 C 66.042969 346.6875 66.367188 350.078125 66.367188 352.558594 C 66.367188 355.042969 66.042969 356.738281 65.257812 357.257812 C 64.542969 357.78125 63.367188 357.125 61.933594 354.710938 C 60.5625 352.234375 58.929688 348.058594 56.515625 340.945312 C 54.949219 336.3125 53.121094 330.503906 51.425781 325.027344 C 51.296875 324.5 51.03125 323.847656 50.644531 322.871094 C 49.925781 321.109375 48.882812 318.5 47.511719 315.304688 C 46.140625 312.171875 44.507812 308.519531 42.746094 303.882812 C 40.984375 299.25 39.160156 293.640625 38.117188 289.460938 C 37.464844 287.046875 37.136719 285.15625 36.941406 283.65625 C 36.679688 282.417969 36.550781 280.917969 36.417969 278.238281 C 36.285156 274.914062 36.222656 269.695312 36.484375 263.953125 C 36.746094 259.449219 37.199219 255.796875 36.875 251.226562 C 36.746094 248.683594 36.285156 245.03125 35.960938 240.398438 C 35.570312 235.699219 35.308594 229.957031 35.179688 226.304688 C 34.984375 221.671875 35.308594 217.625 35.570312 212.925781 C 36.09375 205.421875 37.136719 197.855469 37.464844 190.480469 C 37.59375 188.71875 37.59375 186.5 37.59375 183.761719 C 37.527344 181.019531 37.464844 177.820312 37.527344 173.125 C 37.660156 166.863281 37.59375 159.359375 38.3125 153.222656 C 38.898438 148.070312 40.332031 141.609375 41.703125 136.390625 C 43.074219 131.167969 44.378906 127.1875 45.621094 123.601562 C 46.53125 120.792969 47.511719 118.054688 48.425781 115.25 C 49.464844 111.988281 50.578125 108.789062 51.554688 105.464844 C 52.664062 101.871094 53.777344 97.828125 55.078125 94.238281 C 55.667969 92.542969 56.644531 90.0625 58.277344 86.40625 C 59.84375 82.820312 62.0625 78.054688 64.542969 73.492188 C 67.019531 68.921875 69.757812 64.617188 73.285156 59.984375 C 76.808594 55.285156 81.046875 50.328125 85.683594 45.628906 C 90.382812 40.867188 95.339844 36.363281 99.320312 32.1875 C 103.167969 28.078125 106.039062 24.292969 108.125 20.640625 C 110.214844 16.984375 111.585938 13.460938 112.566406 10.394531 C 113.542969 7.324219 114.132812 4.78125 114.785156 3.148438 C 115.109375 2.300781 115.433594 1.71875 115.632812 1.257812 C 114.714844 2.042969 113.609375 2.890625 112.5 3.867188 C 110.933594 5.109375 109.433594 6.542969 108.191406 7.71875 C 107.019531 8.890625 106.105469 9.9375 105.453125 10.457031 C 104.734375 11.046875 104.28125 11.113281 104.34375 10.851562 C 104.410156 10.589844 104.996094 10.003906 106.234375 8.699219 C 107.542969 7.394531 109.433594 5.367188 111.0625 3.867188 C 112.695312 2.300781 114.066406 1.195312 115.175781 0.28125 C 114.457031 0.28125 113.152344 0.605469 111 1.324219 C 107.929688 2.367188 103.101562 4.195312 98.539062 7 C 94.035156 9.875 89.792969 13.65625 86.59375 17.441406 C 83.398438 21.222656 81.179688 25.074219 78.898438 30.75 C 76.613281 36.429688 74.261719 43.929688 72.109375 50.328125 C 71.328125 52.804688 70.476562 55.089844 69.757812 57.179688 C 71.132812 54.566406 72.828125 51.5 74.261719 49.152344 C 76.21875 46.019531 77.589844 44.386719 78.699219 43.019531 C 79.875 41.648438 80.789062 40.605469 81.113281 40.410156 C 81.375 40.148438 81.046875 40.667969 80.136719 41.976562 C 79.15625 43.28125 77.65625 45.367188 76.089844 47.976562 C 74.457031 50.585938 72.890625 53.71875 71.390625 56.460938 C 69.957031 59.007812 68.585938 61.222656 67.738281 62.59375 C 67.214844 63.835938 66.761719 65.007812 66.300781 66.117188 C 64.542969 70.359375 62.976562 73.621094 61.734375 76.359375 C 60.496094 79.164062 59.582031 81.449219 58.734375 83.601562 C 57.886719 85.757812 57.039062 87.777344 56.320312 89.347656 C 55.601562 90.847656 54.949219 92.214844 54.296875 93.847656 C 53.058594 96.847656 51.554688 100.699219 50.511719 103.703125 C 48.617188 108.789062 48.488281 110.488281 47.25 115.121094 C 46.859375 116.617188 46.273438 118.578125 45.683594 120.339844 C 44.574219 123.601562 43.335938 126.46875 42.160156 130.125 C 40.984375 133.777344 39.417969 139.261719 38.246094 144.808594 C 37.070312 150.355469 36.15625 155.898438 35.765625 161.054688 C 35.113281 169.144531 36.222656 177.105469 36.222656 185.195312 C 36.15625 188.390625 36.027344 191.523438 35.832031 194.65625 C 35.636719 197.726562 35.503906 201.050781 35.308594 204.183594 C 35.050781 209.015625 34.527344 214.296875 34.332031 218.472656 C 34.070312 222.582031 33.9375 226.175781 34.007812 230.738281 C 34.136719 235.308594 34.394531 240.070312 34.589844 243.332031 C 34.785156 246.597656 35.246094 249.925781 35.4375 253.1875 C 35.570312 256.121094 35.4375 259.582031 35.375 262.253906 C 35.179688 268.0625 34.65625 272.957031 35.179688 278.957031 C 35.570312 283.003906 36.351562 287.832031 37.199219 291.941406 C 38.046875 296.050781 38.832031 299.578125 39.484375 301.859375 C 40.726562 306.363281 43.011719 310.796875 44.707031 315.238281 C 45.945312 318.4375 47.054688 321.433594 47.96875 324.046875 C 49.925781 330.050781 49.011719 330.570312 52.144531 336.835938 C 53.1875 338.921875 53.777344 340.488281 54.882812 343.421875 C 55.992188 346.363281 57.101562 349.816406 57.953125 352.167969 C 58.734375 354.582031 59.253906 355.953125 59.453125 356.671875 C 59.648438 357.453125 59.515625 357.652344 59.386719 357.78125 C 59.253906 357.910156 59.1875 357.910156 58.992188 357.78125 C 58.800781 357.652344 58.472656 357.257812 58.210938 356.800781 C 58.144531 356.671875 58.144531 356.472656 58.082031 356.34375 C 58.015625 356.34375 58.015625 356.277344 58.015625 356.277344 C 57.492188 355.953125 56.386719 354.710938 54.6875 353.148438 C 52.992188 351.578125 50.644531 349.6875 48.882812 348.121094 C 47.121094 346.558594 45.945312 345.316406 44.902344 344.140625 C 43.859375 342.96875 42.941406 341.726562 43.464844 342.121094 C 43.988281 342.445312 45.878906 344.40625 48.488281 346.816406 C 51.097656 349.167969 54.429688 352.039062 56.058594 353.410156 C 56.84375 353.992188 57.234375 354.324219 57.492188 354.453125 C 57.167969 353.472656 56.449219 352.101562 55.667969 349.816406 C 54.882812 347.535156 53.710938 344.269531 52.273438 341.007812 C 50.839844 337.746094 48.945312 333.765625 47.90625 332.136719 C 46.792969 330.503906 46.792969 330.308594 46.273438 329.65625 C 44.964844 328.222656 43.140625 326.066406 40.660156 323.394531 C 37.464844 319.867188 33.089844 315.5625 29.566406 312.234375 C 25.980469 308.972656 23.171875 306.753906 21.214844 304.667969 C 19.976562 303.359375 19.0625 302.1875 18.34375 301.144531 Z M 55.078125 42.5625 C 54.558594 43.671875 53.578125 45.5625 52.929688 47.523438 C 52.273438 49.414062 51.949219 51.304688 51.6875 52.933594 C 51.425781 54.503906 51.230469 55.742188 51.097656 56.589844 C 50.902344 57.503906 50.707031 57.894531 50.511719 57.960938 C 50.382812 58.027344 50.316406 57.699219 50.449219 56.527344 C 50.578125 55.347656 50.902344 53.394531 51.363281 51.367188 C 51.816406 49.347656 52.40625 47.257812 52.929688 45.691406 C 53.316406 44.648438 53.710938 43.800781 53.972656 43.214844 C 53.382812 43.867188 52.46875 44.84375 51.296875 46.476562 C 49.730469 48.628906 47.640625 51.890625 45.878906 56.066406 C 44.117188 60.242188 42.617188 65.464844 42.027344 70.09375 C 41.445312 74.730469 41.703125 78.839844 42.226562 82.753906 C 42.683594 86.605469 43.335938 90.195312 44.054688 93.261719 C 44.773438 96.261719 45.554688 98.738281 46.273438 101.152344 C 46.988281 103.570312 47.574219 105.917969 47.835938 107.613281 C 47.90625 107.746094 47.90625 107.878906 47.90625 108.074219 C 47.96875 107.8125 48.035156 107.613281 48.097656 107.417969 C 48.230469 107.160156 48.292969 106.832031 48.425781 106.570312 C 48.425781 106.113281 48.425781 105.59375 48.488281 105.003906 C 48.488281 103.570312 48.488281 101.871094 48.359375 99.523438 C 48.292969 97.175781 48.035156 94.109375 47.96875 92.019531 C 47.835938 89.933594 47.769531 88.824219 47.835938 88.367188 C 47.96875 87.910156 48.164062 88.171875 48.359375 89.019531 C 48.554688 89.933594 48.617188 91.566406 48.816406 94.367188 C 48.945312 97.175781 49.078125 101.089844 49.011719 103.703125 C 49.011719 104.222656 48.945312 104.679688 48.945312 105.070312 C 52.992188 93.519531 55.015625 81.1875 55.539062 68.921875 C 55.730469 64.160156 55.34375 59.394531 55.015625 55.679688 C 54.6875 51.957031 54.429688 49.347656 54.496094 47.257812 C 54.558594 45.171875 54.882812 43.605469 55.078125 42.824219 C 55.078125 42.691406 55.144531 42.5625 55.144531 42.496094 Z M 104.734375 61.613281 C 102.90625 62.269531 99.773438 63.441406 96.972656 64.746094 C 94.164062 65.984375 91.683594 67.355469 90.316406 68.203125 C 88.945312 68.988281 88.683594 69.378906 89.074219 69.3125 C 89.464844 69.246094 90.640625 68.792969 92.273438 67.945312 C 93.902344 67.160156 96.058594 66.050781 98.078125 65.070312 C 100.167969 64.09375 102.125 63.3125 103.496094 62.851562 C 104.472656 62.460938 105.128906 62.269531 105.648438 62.136719 C 105.648438 62.460938 105.191406 63.050781 104.34375 63.898438 C 103.429688 64.746094 102.125 65.855469 98.992188 68.664062 C 95.925781 71.464844 91.097656 75.902344 85.488281 79.816406 C 79.875 83.667969 73.480469 86.929688 68.847656 89.734375 C 64.28125 92.476562 61.472656 94.761719 59.324219 96.976562 C 57.167969 99.132812 55.667969 101.152344 54.035156 103.960938 C 53.121094 105.464844 52.210938 107.222656 51.296875 109.050781 C 51.621094 108.007812 52.144531 106.046875 52.796875 104.027344 C 52.929688 103.765625 53.058594 103.4375 53.253906 103.179688 C 53.972656 101.871094 55.015625 100.109375 56.578125 98.089844 C 58.144531 96.066406 60.300781 93.714844 62.191406 91.890625 C 64.082031 90.0625 65.714844 88.628906 66.695312 87.714844 C 67.609375 86.800781 67.804688 86.40625 67.542969 86.539062 C 67.214844 86.605469 66.367188 87.253906 65 88.433594 C 63.628906 89.605469 61.800781 91.300781 59.710938 93.585938 C 57.691406 95.9375 55.40625 98.808594 54.035156 100.699219 C 53.972656 100.894531 53.839844 101.023438 53.710938 101.152344 C 53.90625 100.699219 54.101562 100.175781 54.296875 99.722656 C 54.753906 98.738281 55.015625 97.828125 55.539062 97.5 C 56.058594 97.109375 57.101562 95.871094 58.40625 93.914062 C 59.648438 91.890625 61.277344 89.019531 63.5 85.757812 C 65.648438 82.496094 68.328125 78.839844 71.914062 75.511719 C 75.4375 72.121094 79.875 68.988281 84.3125 66.832031 C 88.683594 64.617188 93.054688 63.3125 96.449219 62.59375 C 99.839844 61.875 102.125 61.679688 103.625 61.613281 C 104.082031 61.613281 104.472656 61.613281 104.734375 61.613281 Z M 38.898438 175.082031 C 39.878906 172.796875 41.769531 168.558594 43.53125 165.488281 C 45.292969 162.425781 46.859375 160.597656 47.640625 159.554688 C 48.488281 158.511719 48.554688 158.246094 48.359375 158.246094 C 48.230469 158.3125 47.835938 158.574219 46.921875 159.683594 C 46.007812 160.792969 44.507812 162.816406 43.207031 164.773438 C 41.964844 166.796875 40.921875 168.753906 40.203125 169.996094 C 39.484375 171.296875 39.160156 171.820312 38.898438 172.34375 C 38.765625 172.601562 38.636719 172.863281 38.507812 173.125 C 38.507812 172.210938 38.507812 171.363281 38.570312 170.449219 C 38.570312 164.121094 38.636719 163.207031 41.3125 157.140625 C 42.421875 154.464844 43.988281 151.722656 46.339844 147.941406 C 48.753906 144.089844 52.015625 139.195312 56.84375 133.910156 C 61.601562 128.625 67.933594 123.011719 73.738281 118.707031 C 79.546875 114.46875 84.835938 111.53125 89.335938 109.113281 C 93.773438 106.699219 97.492188 104.808594 99.320312 104.027344 C 99.644531 103.898438 99.96875 103.765625 100.167969 103.703125 C 99.90625 104.027344 100.101562 103.832031 99.320312 104.613281 C 98.472656 105.332031 96.253906 107.550781 93.839844 109.964844 C 91.488281 112.3125 92.207031 111.335938 90.246094 113.683594 C 88.292969 116.035156 87.183594 117.53125 87.183594 117.859375 C 87.183594 118.183594 88.292969 117.335938 89.726562 115.902344 C 91.164062 114.402344 89.269531 116.292969 92.011719 113.355469 C 94.816406 110.488281 98.601562 106.832031 100.558594 104.613281 L 100.6875 104.414062 C 100.558594 104.746094 100.429688 105.265625 100.167969 105.851562 C 99.320312 108.007812 97.691406 111.789062 94.164062 117.335938 C 90.640625 122.882812 85.289062 130.125 79.941406 136.519531 C 74.589844 142.917969 69.304688 148.394531 64.082031 153.417969 C 58.863281 158.378906 53.644531 162.816406 49.796875 166.863281 C 45.878906 170.90625 43.207031 174.558594 41.3125 178.734375 C 40.136719 181.347656 39.226562 184.085938 38.507812 187.21875 C 38.507812 185.71875 38.570312 183.957031 38.570312 182.066406 C 38.570312 180.105469 38.570312 178.019531 38.507812 175.929688 Z M 35.898438 151.65625 C 35.503906 149.699219 34.589844 146.046875 34.007812 143.109375 C 33.351562 140.238281 33.023438 138.152344 32.699219 136.714844 C 32.441406 135.34375 32.175781 134.625 32.046875 134.5625 C 31.851562 134.496094 31.785156 135.085938 32.046875 137.042969 C 32.375 139 33.023438 142.328125 33.613281 145.332031 C 34.265625 148.328125 34.917969 150.9375 35.246094 152.636719 C 35.4375 153.417969 35.570312 154.007812 35.636719 154.464844 C 35.246094 157.074219 34.984375 159.488281 34.785156 161.574219 C 34.460938 165.164062 34.460938 167.773438 34.527344 170.125 C 33.9375 168.097656 33.15625 166.078125 32.242188 163.730469 C 30.675781 159.75 28.589844 154.660156 26.761719 149.375 C 25 144.089844 23.4375 138.542969 22.585938 133.257812 C 21.671875 127.972656 21.476562 122.949219 21.671875 117.335938 C 21.933594 111.789062 22.519531 105.65625 23.238281 101.546875 C 23.761719 98.285156 24.285156 96.328125 24.671875 95.28125 C 24.738281 96.652344 24.867188 98.480469 25.066406 100.441406 C 25.328125 103.050781 25.78125 105.917969 26.238281 108.203125 C 26.699219 110.488281 27.152344 112.117188 27.480469 112.769531 C 27.742188 113.421875 27.871094 113.09375 27.804688 112.054688 C 27.675781 111.007812 27.347656 109.246094 26.957031 107.222656 C 26.566406 105.199219 26.109375 102.917969 25.851562 100.570312 C 25.585938 98.414062 25.457031 96.128906 25.390625 94.628906 C 25.523438 94.828125 25.585938 95.152344 25.714844 95.546875 C 26.046875 96.394531 26.5 97.4375 27.871094 99.523438 C 29.242188 101.675781 31.523438 104.875 33.613281 108.265625 C 35.703125 111.660156 37.527344 115.378906 38.703125 118.449219 C 44.183594 133.714844 41.835938 123.601562 37.332031 144.675781 C 36.808594 147.222656 36.351562 149.699219 36.027344 152.050781 C 35.960938 151.921875 35.960938 151.785156 35.898438 151.65625 Z M 32.304688 228.976562 C 31.132812 226.304688 28.71875 221.605469 27.152344 218.34375 C 25.523438 215.082031 24.671875 213.320312 24.21875 212.140625 C 23.695312 211.035156 23.566406 210.511719 23.566406 210.710938 C 23.566406 210.90625 23.628906 211.882812 24.085938 213.253906 C 24.480469 214.691406 25.261719 216.515625 26.304688 218.800781 C 27.347656 221.082031 28.71875 223.757812 29.761719 225.84375 C 30.808594 227.871094 31.457031 229.304688 31.980469 230.414062 C 32.503906 231.585938 32.828125 232.433594 33.023438 233.21875 C 33.089844 233.414062 33.15625 233.613281 33.15625 233.742188 C 33.289062 236.609375 33.417969 239.289062 33.417969 240.722656 C 33.484375 242.941406 33.613281 242.679688 33.679688 243.527344 C 33.15625 241.636719 32.636719 239.808594 32.046875 238.113281 C 31.328125 235.898438 30.546875 234.003906 28.65625 231.066406 C 26.828125 228.128906 23.890625 224.148438 20.957031 219.515625 C 18.019531 214.820312 15.015625 209.53125 12.800781 204.703125 C 10.515625 199.875 8.949219 195.441406 8.101562 191.394531 C 7.1875 187.285156 6.925781 183.5625 7.125 179.0625 C 7.253906 174.558594 7.90625 169.339844 8.492188 165.6875 C 8.949219 163.140625 9.339844 161.378906 9.667969 160.402344 C 9.734375 161.121094 9.863281 161.902344 9.925781 162.621094 C 10.121094 164.054688 10.253906 165.230469 10.386719 167.316406 C 10.582031 169.535156 10.777344 172.667969 10.96875 174.757812 C 11.300781 176.84375 11.625 177.886719 11.753906 177.886719 C 11.949219 177.886719 12.015625 176.777344 11.949219 175.734375 C 11.882812 174.757812 11.625 173.710938 11.429688 171.625 C 11.167969 169.472656 10.90625 166.207031 10.777344 163.730469 C 10.644531 162.359375 10.582031 161.183594 10.582031 160.273438 C 10.710938 160.726562 10.839844 161.378906 11.035156 162.226562 C 11.558594 164.253906 12.472656 167.1875 14.167969 171.101562 C 15.800781 174.953125 18.277344 179.847656 20.691406 185.589844 C 23.105469 191.394531 25.390625 198.050781 27.21875 203.273438 C 28.980469 208.492188 30.414062 212.210938 31.199219 214.363281 C 33.089844 219.449219 33.222656 218.929688 33.15625 221.144531 C 33.023438 224.085938 33.089844 227.671875 33.089844 228.390625 C 33.089844 229.238281 33.089844 230.085938 33.089844 230.933594 C 32.960938 230.480469 32.699219 229.824219 32.304688 228.976562 Z M 93.507812 153.683594 C 92.335938 155.183594 90.382812 157.464844 88.683594 159.421875 C 86.789062 161.574219 85.160156 163.402344 84.050781 164.707031 C 83.007812 166.011719 82.421875 166.796875 82.160156 166.992188 C 81.960938 167.121094 81.960938 166.730469 82.679688 165.6875 C 83.332031 164.640625 84.703125 162.882812 86.335938 160.859375 C 87.964844 158.835938 89.988281 156.421875 91.292969 154.789062 C 91.949219 154.007812 92.402344 153.417969 92.859375 152.964844 C 91.949219 153.222656 90.445312 153.941406 88.683594 154.789062 C 86.53125 155.898438 84.050781 157.140625 80.136719 159.617188 C 76.15625 162.164062 70.671875 165.949219 65.714844 170.058594 C 60.753906 174.167969 56.320312 178.667969 53.253906 182.390625 C 50.183594 186.042969 48.554688 188.980469 46.792969 192.308594 C 45.03125 195.699219 43.140625 199.550781 41.835938 203.074219 C 40.53125 206.597656 39.8125 209.796875 39.09375 213.125 C 38.441406 216.515625 37.789062 219.972656 37.332031 222.453125 C 36.351562 227.738281 36.15625 228.128906 36.484375 233.871094 C 36.550781 234.328125 36.550781 234.785156 36.617188 235.308594 C 36.617188 235.179688 36.617188 235.113281 36.679688 234.980469 C 36.875 234.195312 37.199219 233.089844 37.722656 231.457031 C 38.246094 229.824219 38.964844 227.671875 39.941406 225.390625 C 40.855469 223.105469 42.027344 220.691406 42.746094 219.386719 C 43.464844 218.082031 43.792969 217.953125 43.792969 218.082031 C 43.792969 218.277344 43.53125 218.867188 43.140625 219.648438 C 42.8125 220.496094 42.355469 221.539062 41.445312 223.890625 C 40.53125 226.238281 39.09375 229.957031 38.246094 233.484375 C 37.527344 236.351562 37.199219 239.089844 37.003906 241.179688 C 37.199219 243.136719 37.332031 244.964844 37.464844 246.53125 C 37.660156 248.292969 37.789062 249.726562 37.917969 250.902344 C 38.246094 249.207031 38.570312 247.445312 39.03125 245.75 C 40.660156 239.484375 43.207031 233.21875 47.382812 226.628906 C 51.492188 220.039062 57.167969 213.058594 62.585938 207.117188 C 68.0625 201.183594 73.285156 196.222656 77.394531 191.652344 C 81.507812 187.089844 84.503906 182.78125 86.726562 178.539062 C 88.878906 174.300781 90.382812 170.058594 91.230469 166.144531 C 92.078125 162.226562 92.273438 158.703125 92.796875 156.355469 C 93.054688 155.117188 93.378906 154.269531 93.507812 153.683594 Z M 96.707031 205.617188 C 95.011719 208.164062 91.617188 212.601562 89.335938 215.734375 C 87.054688 218.800781 85.875 220.625 85.09375 221.734375 C 84.246094 222.847656 83.65625 223.171875 83.59375 222.976562 C 83.460938 222.777344 83.792969 221.996094 85.355469 219.648438 C 86.984375 217.234375 89.792969 213.253906 91.878906 210.25 C 93.445312 207.902344 94.558594 206.207031 95.46875 204.96875 C 93.839844 206.140625 91.292969 208.296875 88.226562 210.445312 C 84.703125 213.058594 80.460938 215.796875 76.089844 218.867188 C 71.71875 221.929688 67.148438 225.257812 63.039062 229.171875 C 58.863281 233.023438 55.210938 237.394531 52.46875 241.308594 C 49.664062 245.226562 47.707031 248.746094 46.007812 253.382812 C 44.3125 257.949219 42.746094 263.628906 41.898438 268.78125 C 41.117188 273.867188 40.921875 278.4375 40.921875 281.503906 C 40.792969 285.546875 39.941406 288.226562 40.460938 291.878906 C 40.660156 290.441406 40.921875 288.289062 41.445312 285.941406 C 41.898438 283.527344 42.550781 280.851562 43.792969 277.71875 C 44.964844 274.585938 46.792969 271.066406 47.90625 268.976562 C 49.078125 266.890625 49.664062 266.367188 49.988281 266.171875 C 50.316406 266.039062 50.382812 266.300781 49.859375 267.277344 C 49.273438 268.257812 48.097656 270.019531 46.921875 272.5 C 45.75 275.046875 44.507812 278.308594 43.59375 282.546875 C 42.746094 286.726562 42.09375 291.8125 41.769531 294.816406 C 41.703125 295.597656 41.640625 296.183594 41.640625 296.707031 C 42.160156 298.796875 42.875 301.144531 43.792969 303.554688 C 45.488281 308.058594 47.382812 312.105469 48.753906 315.496094 L 48.753906 315.5625 C 47.054688 308.972656 46.46875 304.992188 46.46875 301.144531 C 46.402344 297.164062 46.988281 293.378906 48.359375 289.460938 C 49.730469 285.613281 51.882812 281.703125 55.539062 276.742188 C 59.1875 271.847656 64.410156 265.972656 69.566406 259.972656 C 74.71875 254.035156 79.8125 248.09375 83.921875 241.179688 C 88.097656 234.265625 91.292969 226.5 93.445312 220.167969 C 95.597656 213.90625 96.707031 209.144531 97.230469 206.535156 C 97.425781 205.488281 97.554688 204.769531 97.492188 204.378906 C 97.296875 204.703125 97.035156 205.164062 96.707031 205.617188 " fill-opacity="1" fill-rule="evenodd"/></g></g></g></g></svg>